<svg xmlns="http://www.w3.org/2000/svg" xmlns:xlink="http://www.w3.org/1999/xlink" viewBox="0 0 500 500" width="500" height="500" preserveAspectRatio="xMidYMid meet" style="width: 100%; height: 100%; transform: translate3d(0px, 0px, 0px); content-visibility: visible;"><defs><clipPath id="__lottie_element_216"><rect width="500" height="500" x="0" y="0"></rect></clipPath></defs><g clip-path="url(#__lottie_element_216)"><g transform="matrix(1,0,0,1,250,40.9849967956543)" opacity="1" style="display: block;"><g opacity="1" transform="matrix(1,0,0,1,0,0)"><path fill="rgb(148,214,147)" fill-opacity="1" d=" M0,-3.0339999198913574 C104.58505249023438,-3.0339999198913574 189.5,-1.6744645833969116 189.5,0 C189.5,1.6744645833969116 104.58505249023438,3.0339999198913574 0,3.0339999198913574 C-104.58505249023438,3.0339999198913574 -189.5,1.6744645833969116 -189.5,0 C-189.5,-1.6744645833969116 -104.58505249023438,-3.0339999198913574 0,-3.0339999198913574z"></path></g></g><g transform="matrix(1.7000000476837158,0,0,1.7000000476837158,168.3489990234375,36.39500045776367)" opacity="1" style="display: block;"><g opacity="1" transform="matrix(1,0,0,1,0,0)"></g><g opacity="1" transform="matrix(1,0,0,1,0,0)"></g><g opacity="1" transform="matrix(1,0,0,1,0,0)"><path fill="rgb(211,211,211)" fill-opacity="1" d=" M28.270000457763672,59.869998931884766 C28.270000457763672,59.869998931884766 28.190000534057617,25.950000762939453 26.100000381469727,19.1200008392334 C24.020000457763672,12.289999961853027 21.559999465942383,8.619999885559082 23.389999389648438,7.789999961853027 C25.219999313354492,6.960000038146973 28.809999465942383,14.329999923706055 28.809999465942383,14.329999923706055 C28.809999465942383,14.329999923706055 25.850000381469727,0.20000000298023224 28.520000457763672,0.07999999821186066 C31.190000534057617,-0.03999999910593033 31.899999618530273,11.119999885559082 31.899999618530273,11.119999885559082 C31.899999618530273,11.119999885559082 32.650001525878906,-1.090000033378601 35.56999969482422,0.07999999821186066 C38.4900016784668,1.25 35.279998779296875,12.460000038146973 35.279998779296875,12.460000038146973 C35.279998779296875,12.460000038146973 39.31999969482422,7.539999961853027 41.31999969482422,10.039999961853027 C43.31999969482422,12.539999961853027 35.150001525878906,15.75 35.20000076293945,21.1200008392334 C35.2400016784668,26.5 36.369998931884766,53.619998931884766 36.369998931884766,53.619998931884766 C36.369998931884766,53.619998931884766 28.270000457763672,59.869998931884766 28.270000457763672,59.869998931884766 C28.270000457763672,59.869998931884766 28.270000457763672,59.869998931884766 28.270000457763672,59.869998931884766z"></path></g><g opacity="1" transform="matrix(1,0,0,1,0,0)"><path fill="rgb(211,211,211)" fill-opacity="1" d=" M59.189998626708984,54.22999954223633 C59.36000061035156,53.869998931884766 62.86000061035156,26.1200008392334 62.02000045776367,17.959999084472656 C62.02000045776367,17.959999084472656 55.97999954223633,14.130000114440918 57.040000915527344,11.539999961853027 C58.099998474121094,8.960000038146973 63.709999084472656,14.210000038146973 63.709999084472656,14.210000038146973 C63.709999084472656,14.210000038146973 60.189998626708984,3.0399999618530273 63.189998626708984,2.700000047683716 C66.19000244140625,2.369999885559082 67.44000244140625,13.869999885559082 67.36000061035156,13.279999732971191 C67.2699966430664,12.699999809265137 67.5999984741211,1.2000000476837158 70.2699966430664,1.5399999618530273 C72.94000244140625,1.8700000047683716 70.94000244140625,12.460000038146973 70.94000244140625,12.460000038146973 C70.94000244140625,12.460000038146973 75.86000061035156,7.289999961853027 77.0199966430664,10.039999961853027 C78.19000244140625,12.789999961853027 72.19000244140625,13.539999961853027 70.5999984741211,19.959999084472656 C69.0199966430664,26.3799991607666 67.68000030517578,53.630001068115234 66.5999984741211,61.130001068115234 C65.5199966430664,68.62000274658203 59.189998626708984,54.22999954223633 59.189998626708984,54.22999954223633 C59.189998626708984,54.22999954223633 59.189998626708984,54.22999954223633 59.189998626708984,54.22999954223633z"></path></g><g opacity="1" transform="matrix(1,0,0,1,0,-11.284965515136719)"><g opacity="1" transform="matrix(1,0,0,1,0,0)"><path fill="rgb(211,211,211)" fill-opacity="1" d=" M46.689998626708984,152.6199951171875 C44.189998626708984,168.9499969482422 44.189998626708984,194.2899932861328 52.02000045776367,211.1199951171875 C59.849998474121094,227.9499969482422 28.850000381469727,255.3000030517578 34.349998474121094,255.7100067138672 C39.93000030517578,256.1300048828125 60.38154983520508,221.1248016357422 58.2115478515625,213.79481506347656 C57.00812530517578,206.10845947265625 50.689998626708984,194.7100067138672 50.939998626708984,176.5500030517578 C51.15999984741211,160.63999938964844 53.27000045776367,149.72000122070312 53.27000045776367,149.72000122070312 C53.27000045776367,149.72000122070312 46.689998626708984,152.6199951171875 46.689998626708984,152.6199951171875 C46.689998626708984,152.6199951171875 46.689998626708984,152.6199951171875 46.689998626708984,152.6199951171875z"></path></g><g opacity="1" transform="matrix(1,0,0,1,0,0)"><path fill="rgb(211,211,211)" fill-opacity="1" d=" M46.91999816894531,46.400001525878906 C39.849998474121094,46.20000076293945 33.52000045776367,45.95000076293945 25.520000457763672,59.779998779296875 C17.520000457763672,73.61000061035156 13.350000381469727,84.11000061035156 17.690000534057617,86.11000061035156 C22.020000457763672,88.11000061035156 29.860000610351562,76.94000244140625 29.860000610351562,76.94000244140625 C29.860000610351562,76.94000244140625 28.190000534057617,115.61000061035156 23.860000610351562,145.77000427246094 C19.530000686645508,175.94000244140625 27.690000534057617,199.44000244140625 27.690000534057617,199.44000244140625 C27.690000534057617,199.44000244140625 24.420000076293945,205.22999572753906 24.610000610351562,209.47999572753906 C24.799999237060547,213.72999572753906 27.420000076293945,214.60000610351562 28.549999237060547,206.47999572753906 C28.549999237060547,206.47999572753906 29.489999771118164,215.10000610351562 32.43000030517578,214.86000061035156 C35.369998931884766,214.61000061035156 31.989999771118164,204.6699981689453 31.989999771118164,204.6699981689453 C31.989999771118164,204.6699981689453 34.869998931884766,213.7899932861328 36.9900016784668,212.9199981689453 C39.11000061035156,212.0500030517578 35.43000030517578,204.3000030517578 35.43000030517578,204.3000030517578 C35.43000030517578,204.3000030517578 39.18000030517578,207.86000061035156 40.54999923706055,206.4199981689453 C41.91999816894531,204.97999572753906 36.66999816894531,200.4199981689453 33.7400016784668,198.5399932861328 C30.799999237060547,196.66000366210938 26.829999923706055,174.35000610351562 31.15999984741211,153.85000610351562 C31.15999984741211,153.85000610351562 50.619998931884766,157.35000610351562 63.7400016784668,152.60000610351562 C63.7400016784668,152.60000610351562 67.48999786376953,177.47999572753906 67.86000061035156,198.22000122070312 C67.86000061035156,198.22000122070312 60.61000061035156,205.47000122070312 63.11000061035156,207.60000610351562 C65.61000061035156,209.72999572753906 67.86000061035156,202.72000122070312 67.86000061035156,202.72000122070312 C67.86000061035156,202.72000122070312 67.23999786376953,213.97000122070312 69.36000061035156,214.22000122070312 C71.4800033569336,214.47000122070312 71.2300033569336,203 71.2300033569336,203 C71.2300033569336,203 71.7300033569336,213.6199951171875 75.11000061035156,213.5 C78.48999786376953,213.3800048828125 74.2300033569336,202.1199951171875 74.2300033569336,202.1199951171875 C74.2300033569336,202.1199951171875 77.8499984741211,207.8699951171875 79.9800033569336,204.8699951171875 C82.11000061035156,201.8699951171875 73.36000061035156,196.2899932861328 73.36000061035156,196.2899932861328 C73.36000061035156,196.2899932861328 75.36000061035156,167.1199951171875 71.61000061035156,136.1199951171875 C67.86000061035156,105.12000274658203 65.48999786376953,78.18000030517578 65.48999786376953,78.18000030517578 C65.48999786376953,78.18000030517578 72.05000305175781,92.80000305175781 76.37000274658203,91.43000030517578 C80.68000030517578,90.05000305175781 73.04000091552734,60.63999938964844 65.19999694824219,53.209999084472656 C57.349998474121094,45.790000915527344 52.91999816894531,46.56999969482422 46.91999816894531,46.400001525878906 C46.91999816894531,46.400001525878906 46.91999816894531,46.400001525878906 46.91999816894531,46.400001525878906z"></path></g><g opacity="1" transform="matrix(1,0,0,1,0,0)"><path fill="rgb(240,245,254)" fill-opacity="1" d=" M45.869998931884766,57.900001525878906 C45.869998931884766,54.220001220703125 42.88999938964844,51.22999954223633 39.20000076293945,51.22999954223633 C35.5099983215332,51.22999954223633 32.529998779296875,54.209999084472656 32.529998779296875,57.900001525878906 C32.529998779296875,61.59000015258789 35.5099983215332,64.56999969482422 39.20000076293945,64.56999969482422 C42.88999938964844,64.56999969482422 45.869998931884766,61.58000183105469 45.869998931884766,57.900001525878906 C45.869998931884766,57.900001525878906 45.869998931884766,57.900001525878906 45.869998931884766,57.900001525878906z"></path></g><g opacity="1" transform="matrix(1,0,0,1,0,0)"><path fill="rgb(28,37,43)" fill-opacity="1" d=" M39.20000076293945,61.560001373291016 C37.18000030517578,61.560001373291016 35.529998779296875,59.90999984741211 35.529998779296875,57.88999938964844 C35.529998779296875,55.869998931884766 37.16999816894531,54.220001220703125 39.20000076293945,54.220001220703125 C41.220001220703125,54.220001220703125 42.869998931884766,55.869998931884766 42.869998931884766,57.88999938964844 C42.869998931884766,59.90999984741211 41.220001220703125,61.560001373291016 39.20000076293945,61.560001373291016 C39.20000076293945,61.560001373291016 39.20000076293945,61.560001373291016 39.20000076293945,61.560001373291016z"></path></g><g opacity="1" transform="matrix(1,0,0,1,0,0)"><path fill="rgb(240,245,254)" fill-opacity="1" d=" M63.709999084472656,57.900001525878906 C63.709999084472656,54.220001220703125 60.72999954223633,51.22999954223633 57.040000915527344,51.22999954223633 C53.36000061035156,51.22999954223633 50.369998931884766,54.209999084472656 50.369998931884766,57.900001525878906 C50.369998931884766,61.59000015258789 53.349998474121094,64.56999969482422 57.040000915527344,64.56999969482422 C60.720001220703125,64.55999755859375 63.709999084472656,61.58000183105469 63.709999084472656,57.900001525878906 C63.709999084472656,57.900001525878906 63.709999084472656,57.900001525878906 63.709999084472656,57.900001525878906z"></path></g><g opacity="1" transform="matrix(1,0,0,1,0,0)"><path fill="rgb(28,37,43)" fill-opacity="1" d=" M57.040000915527344,61.560001373291016 C55.02000045776367,61.560001373291016 53.369998931884766,59.90999984741211 53.369998931884766,57.88999938964844 C53.369998931884766,55.869998931884766 55.0099983215332,54.220001220703125 57.040000915527344,54.220001220703125 C59.060001373291016,54.220001220703125 60.709999084472656,55.869998931884766 60.709999084472656,57.88999938964844 C60.709999084472656,59.90999984741211 59.060001373291016,61.560001373291016 57.040000915527344,61.560001373291016 C57.040000915527344,61.560001373291016 57.040000915527344,61.560001373291016 57.040000915527344,61.560001373291016z"></path></g><g opacity="1" transform="matrix(0.9999700784683228,-0.007735483814030886,0.007735483814030886,0.9999700784683228,0.28568267822265625,44.0704345703125)"><g opacity="1" transform="matrix(1,0,0,1,-0.3499999940395355,-43.70000076293945)"><path stroke-linecap="round" stroke-linejoin="miter" fill-opacity="0" stroke-miterlimit="10" stroke="rgb(0,145,227)" stroke-opacity="1" stroke-width="0.709" d=" M0.3499999940395355,43.70000076293945 C0.3499999940395355,43.70000076293945 12.029999732971191,45.529998779296875 25.200000762939453,50.11000061035156"></path></g><g opacity="1" transform="matrix(1,0,0,1,-0.3499999940395355,-43.70000076293945)"><path stroke-linecap="round" stroke-linejoin="miter" fill-opacity="0" stroke-miterlimit="10" stroke="rgb(0,145,227)" stroke-opacity="1" stroke-width="0.709" d=" M3.5199999809265137,52.290000915527344 C3.5199999809265137,52.290000915527344 14.1899995803833,52.709999084472656 23.190000534057617,54.959999084472656"></path></g><g opacity="1" transform="matrix(1,0,0,1,-0.3499999940395355,-43.70000076293945)"><path stroke-linecap="round" stroke-linejoin="miter" fill-opacity="0" stroke-miterlimit="10" stroke="rgb(0,145,227)" stroke-opacity="1" stroke-width="0.709" d=" M7.099999904632568,59.869998931884766 C7.099999904632568,59.869998931884766 13.850000381469727,57.619998931884766 20.770000457763672,59.20000076293945"></path></g><g opacity="1" transform="matrix(1,0,0,1,-0.3499999940395355,-43.70000076293945)"><path stroke-linecap="round" stroke-linejoin="miter" fill-opacity="0" stroke-miterlimit="10" stroke="rgb(0,145,227)" stroke-opacity="1" stroke-width="0.709" d=" M71.2699966430664,52.95000076293945 C71.2699966430664,52.95000076293945 80.3499984741211,47.029998779296875 96.05999755859375,45.869998931884766"></path></g><g opacity="1" transform="matrix(1,0,0,1,-0.3499999940395355,-43.70000076293945)"><path stroke-linecap="round" stroke-linejoin="miter" fill-opacity="0" stroke-miterlimit="10" stroke="rgb(0,145,227)" stroke-opacity="1" stroke-width="0.709" d=" M72.19000244140625,55.95000076293945 C72.19000244140625,55.95000076293945 81.19000244140625,53.90999984741211 86.36000061035156,54.220001220703125"></path></g><g opacity="1" transform="matrix(1,0,0,1,-0.3499999940395355,-43.70000076293945)"><path stroke-linecap="round" stroke-linejoin="miter" fill-opacity="0" stroke-miterlimit="10" stroke="rgb(0,145,227)" stroke-opacity="1" stroke-width="0.709" d=" M73.8499984741211,59.869998931884766 C73.8499984741211,59.869998931884766 79.38999938964844,59.540000915527344 83.66000366210938,60.70000076293945"></path></g></g></g></g></g></svg>