<svg xmlns="http://www.w3.org/2000/svg" xmlns:xlink="http://www.w3.org/1999/xlink" viewBox="0 0 300 300" width="300" height="300" preserveAspectRatio="xMidYMid meet" style="width: 100%; height: 100%; transform: translate3d(0px, 0px, 0px); content-visibility: visible;"><defs><clipPath id="__lottie_element_85"><rect width="300" height="300" x="0" y="0"></rect></clipPath><clipPath id="__lottie_element_87"><path d="M0,0 L300,0 L300,300 L0,300z"></path></clipPath></defs><g clip-path="url(#__lottie_element_85)"><g clip-path="url(#__lottie_element_87)" transform="matrix(0.9953018426895142,-0.0968209058046341,0.0968209058046341,0.9953018426895142,-24.956302642822266,11.69622802734375)" opacity="1" style="display: block;"><g transform="matrix(1,0,0,1,0,0)" opacity="1" style="display: block;"><g opacity="1" transform="matrix(1,0,0,1,83.7979965209961,227.62899780273438)"><path fill="rgb(145,213,36)" fill-opacity="1" d=" M8.072999954223633,-43.736000061035156 C-16.31599998474121,-24.114999771118164 -24.135000228881836,14.244000434875488 -21.410999298095703,19.25200080871582 C-18.690000534057617,24.259000778198242 10.625,-35.26100158691406 10.625,-35.26100158691406 C-12.651000022888184,2.565000057220459 -17.354999542236328,41.645999908447266 -14.444999694824219,57.69499969482422 C-1.5540000200271606,53.65999984741211 13.105999946594238,-19.80299949645996 17.697999954223633,-32.95199966430664 C2.3239998817443848,12.843000411987305 -1.003000020980835,31.68000030517578 4.946000099182129,37.21500015258789 C23.145999908447266,21.266000747680664 24.135000228881836,-43.68000030517578 24.135000228881836,-57.69499969482422"></path></g><g opacity="1" transform="matrix(1,0,0,1,106.96600341796875,209.49099731445312)"><path fill="rgb(0,147,68)" fill-opacity="1" d=" M-2.2639999389648438,-30.45599937438965 C-9.91100025177002,-14.932999610900879 -11.513999938964844,29.076000213623047 -5.0269999504089355,29.764999389648438 C1.4600000381469727,30.45599937438965 2.868000030517578,-13.404999732971191 2.868000030517578,-13.404999732971191 C2.868000030517578,-13.404999732971191 -1.3880000114440918,15.460000038146973 6.447999954223633,18.79400062561035 C11.513999938964844,15.460000038146973 9.729999542236328,-15.543999671936035 6.182000160217285,-28.381999969482422"></path></g><g opacity="1" transform="matrix(1,0,0,1,101.84200286865234,211.35000610351562)"><path fill="rgb(57,181,73)" fill-opacity="1" d=" M4.670000076293945,-19.32900047302246 C1.2690000534057617,-25.207000732421875 -7.6539998054504395,24.948999404907227 0.8619999885559082,25.207000732421875 C4.218999862670898,22.82200050354004 7.65500020980835,-14.17300033569336 4.670000076293945,-19.32900047302246z"></path></g><g opacity="1" transform="matrix(1,0,0,1,112.65899658203125,205.21099853515625)"><path fill="rgb(57,181,73)" fill-opacity="1" d=" M0.0010000000474974513,-12.939000129699707 C-2.065000057220459,-12.555000305175781 -6.03000020980835,12.939000129699707 0.0010000000474974513,12.939000129699707 C6.031000137329102,12.939000129699707 0.0010000000474974513,-12.939000129699707 0.0010000000474974513,-12.939000129699707z"></path></g><g opacity="1" transform="matrix(1,0,0,1,74.71600341796875,217.32699584960938)"><path fill="rgb(169,244,39)" fill-opacity="1" d=" M12.317999839782715,-24.260000228881836 C2.193000078201294,-12.187000274658203 -12.022000312805176,6.145999908447266 -12.317999839782715,24.260000228881836 C-4.5929999351501465,20.236000061035156 8.77400016784668,-10.343999862670898 12.317999839782715,-24.260000228881836z"></path></g><g opacity="1" transform="matrix(1,0,0,1,76.38400268554688,237.45899963378906)"><path fill="rgb(169,244,39)" fill-opacity="1" d=" M14.526000022888184,-39.983001708984375 C6.071000099182129,-27.64900016784668 -14.526000022888184,31.726999282836914 -5.124000072479248,39.983001708984375 C3.1500000953674316,29.666000366210938 14.526000022888184,-39.983001708984375 14.526000022888184,-39.983001708984375z"></path></g><g opacity="1" transform="matrix(1,0,0,1,92.61900329589844,239.19700622558594)"><path fill="rgb(169,244,39)" fill-opacity="1" d=" M3.4660000801086426,-22.43600082397461 C0.012000000104308128,-11.809000015258789 -6.176000118255615,22.43600082397461 -2.447000026702881,21.93400001525879 C1.281000018119812,21.430999755859375 6.176000118255615,4.250999927520752 6.176000118255615,4.250999927520752 C1.5080000162124634,2.3919999599456787 3.4660000801086426,-22.43600082397461 3.4660000801086426,-22.43600082397461z"></path></g></g><g transform="matrix(1,0,0,1,0,0)" opacity="1" style="display: block;"><g opacity="1" transform="matrix(1,0,0,1,222.031005859375,186.14999389648438)"><path fill="rgb(43,164,55)" fill-opacity="1" d=" M-13.8100004196167,11.916999816894531 C-16.20400047302246,-2.316999912261963 2.3550000190734863,-11.916999816894531 8.696999549865723,-3.5380001068115234 C16.204999923706055,6.380000114440918 -1.4119999408721924,3.9509999752044678 -13.8100004196167,11.916999816894531z"></path></g><g opacity="1" transform="matrix(1,0,0,1,110.30500030517578,204.81500244140625)"><path fill="rgb(187,82,45)" fill-opacity="1" d=" M110.30500030517578,-1.684999942779541 C108.71399688720703,-2.2249999046325684 106.9749984741211,-2.744999885559082 105.06500244140625,-3.244999885559082 C105.06500244140625,-3.244999885559082 105.05500030517578,-3.244999885559082 105.05500030517578,-3.244999885559082 C104.00399780273438,-3.5250000953674316 102.91400146484375,-3.7950000762939453 101.7750015258789,-4.065000057220459 C101.16400146484375,-4.204999923706055 100.54399871826172,-4.34499979019165 99.90499877929688,-4.474999904632568 C93.80500030517578,-5.804999828338623 86.58399963378906,-6.974999904632568 78.58399963378906,-7.965000152587891 C78.58399963378906,-7.965000152587891 78.55500030517578,-7.965000152587891 78.55500030517578,-7.965000152587891 C76.43499755859375,-8.225000381469727 74.25399780273438,-8.475000381469727 72.03399658203125,-8.71500015258789 C72.03399658203125,-8.71500015258789 72.0250015258789,-8.71500015258789 72.0250015258789,-8.71500015258789 C70.86499786376953,-8.833999633789062 69.68499755859375,-8.954999923706055 68.50399780273438,-9.074999809265137 C68.50399780273438,-9.074999809265137 68.49400329589844,-9.074999809265137 68.49400329589844,-9.074999809265137 C24.334999084472656,-13.404999732971191 -36.595001220703125,-12.78499984741211 -66.36499786376953,-4.554999828338623 C-67.75599670410156,-3.7049999237060547 -68.1050033569336,-2.2149999141693115 -67.71600341796875,-0.32499998807907104 C-67.13500213623047,2.484999895095825 -64.93499755859375,6.184999942779541 -62.14500045776367,9.984999656677246 C-61.3849983215332,11.024999618530273 -60.595001220703125,12.045000076293945 -59.75600051879883,13.086000442504883 C-59.75600051879883,13.086000442504883 -59.75600051879883,13.095000267028809 -59.744998931884766,13.104999542236328 C-59.404998779296875,13.524999618530273 -59.064998626708984,13.944999694824219 -58.724998474121094,14.364999771118164 C-57.415000915527344,15.944999694824219 -56.07500076293945,17.496000289916992 -54.78499984741211,18.94499969482422 C-54.775001525878906,18.954999923706055 -54.76499938964844,18.96500015258789 -54.75600051879883,18.985000610351562 C-51.6349983215332,22.454999923706055 -48.78499984741211,25.364999771118164 -47.224998474121094,26.916000366210938 C-46.625,27.5049991607666 -46.224998474121094,27.905000686645508 -46.08599853515625,28.045000076293945 C-46.474998474121094,27.725000381469727 -46.8849983215332,27.405000686645508 -47.26499938964844,27.086000442504883 C-49.28499984741211,25.395000457763672 -51.20500183105469,23.7549991607666 -53.07500076293945,22.145000457763672 C-53.07500076293945,22.145000457763672 -53.08599853515625,22.135000228881836 -53.08599853515625,22.135000228881836 C-55.3650016784668,20.155000686645508 -57.53499984741211,18.246000289916992 -59.6150016784668,16.416000366210938 C-61.345001220703125,14.904999732971191 -63.00600051879883,13.444999694824219 -64.61499786376953,12.074999809265137 C-72.30500030517578,5.514999866485596 -78.76499938964844,0.7250000238418579 -84.91500091552734,-0.4050000011920929 C-88.08599853515625,-0.9850000143051147 -98.125,-0.3050000071525574 -110.625,0.9449999928474426 C-110.625,0.9449999928474426 -110.625,-28.045000076293945 -110.625,-28.045000076293945 C-109.0459976196289,-26.413999557495117 -107.36499786376953,-25.184999465942383 -105.55500030517578,-24.434999465942383 C-103.93499755859375,-23.764999389648438 -89.53500366210938,-23.924999237060547 -68.6449966430664,-23.815000534057617 C-29.975000381469727,-23.625 30.924999237060547,-22.524999618530273 74.09500122070312,-13.635000228881836 C74.13500213623047,-13.635000228881836 74.17500305175781,-13.625 74.21399688720703,-13.614999771118164 C81.4749984741211,-12.125 88.23500061035156,-10.404999732971191 94.29399871826172,-8.4350004196167 C95.50399780273438,-8.045000076293945 96.69499969482422,-7.635000228881836 97.84500122070312,-7.224999904632568 C98.0250015258789,-7.164000034332275 98.19499969482422,-7.09499979019165 98.3740005493164,-7.034999847412109 C99.82499694824219,-6.504000186920166 101.21399688720703,-5.965000152587891 102.56500244140625,-5.40500020980835 C102.57499694824219,-5.40500020980835 102.58399963378906,-5.394999980926514 102.58399963378906,-5.394999980926514 C105.38500213623047,-4.235000133514404 107.96399688720703,-2.994999885559082 110.30500030517578,-1.684999942779541z"></path></g><g opacity="1" transform="matrix(1,0,0,1,185.1320037841797,205.8260040283203)"><path fill="rgb(187,82,45)" fill-opacity="1" d=" M-6.24399995803833,-14.980999946594238 C6.333000183105469,-12.621999740600586 12.194999694824219,4.663000106811523 13.699000358581543,14.980999946594238 C10.692999839782715,4.920000076293945 -3.513000011444092,-10.001999855041504 -13.699000358581543,-14.664999961853027 C-13.699000358581543,-14.664999961853027 -6.24399995803833,-14.980999946594238 -6.24399995803833,-14.980999946594238z"></path></g><g opacity="1" transform="matrix(1,0,0,1,237.1750030517578,213.94400024414062)"><path fill="rgb(43,164,55)" fill-opacity="1" d=" M-25.979000091552734,-15.484999656677246 C-5.821000099182129,-25.315000534057617 25.97800064086914,-9.657999992370605 16.8799991607666,7.828999996185303 C7.7820000648498535,25.31599998474121 -20.26300048828125,-14.020000457763672 -25.979000091552734,-15.484999656677246z"></path></g><g opacity="1" transform="matrix(1,0,0,1,45.301998138427734,236.34100341796875)"><path fill="rgb(43,164,55)" fill-opacity="1" d=" M0.5049999952316284,-22.80299949645996 C2.6679999828338623,-15.482999801635742 -14.223999977111816,-5.271999835968018 -4.125999927520752,8.763999938964844 C5.973999977111816,22.802000045776367 14.223999977111816,-8.468999862670898 0.5049999952316284,-22.80299949645996z"></path></g><g opacity="1" transform="matrix(1,0,0,1,211.70599365234375,213.7270050048828)"><path fill="rgb(43,164,55)" fill-opacity="1" d=" M-2.197000026702881,-14.951000213623047 C11.227999687194824,-5.985000133514404 13.996999740600586,14.949999809265137 0,12.689000129699707 C-13.998000144958496,10.423999786376953 4.047999858856201,-3.4820001125335693 -2.197000026702881,-14.951000213623047z"></path></g><g opacity="1" transform="matrix(1,0,0,1,73.6259994506836,245.552001953125)"><path fill="rgb(43,164,55)" fill-opacity="1" d=" M-18.173999786376953,-21.910999298095703 C-0.3779999911785126,-18.135000228881836 18.173999786376953,0.6439999938011169 4.125,11.277000427246094 C-9.923999786376953,21.910999298095703 -9.697999954223633,-8.420000076293945 -18.173999786376953,-21.910999298095703z"></path></g><g opacity="1" transform="matrix(1,0,0,1,62.7760009765625,216.38600158691406)"><path fill="rgb(43,164,55)" fill-opacity="1" d=" M-15.204000473022461,-1.7710000276565552 C-6.822999954223633,1.1929999589920044 7.488999843597412,-9.803000450134277 10.842000007629395,-1.3279999494552612 C15.204000473022461,9.699000358581543 -7.2220001220703125,9.803000450134277 -15.204000473022461,-1.7710000276565552z"></path></g><g opacity="1" transform="matrix(1,0,0,1,189.03799438476562,218.0540008544922)"><path fill="rgb(43,164,55)" fill-opacity="1" d=" M4.258999824523926,-8.678999900817871 C3.8420000076293945,-10.883999824523926 -6.130000114440918,-3.2960000038146973 -2.634999990463257,3.7950000762939453 C0.8600000143051147,10.883999824523926 6.130000114440918,1.215999960899353 4.258999824523926,-8.678999900817871z"></path></g><g opacity="1" transform="matrix(1,0,0,1,197.9669952392578,231.3159942626953)"><path fill="rgb(43,164,55)" fill-opacity="1" d=" M-0.6449999809265137,-15.878999710083008 C1.2059999704360962,-7.3429999351501465 -9.463000297546387,2.240999937057495 -1.1169999837875366,9.0600004196167 C7.228000164031982,15.878999710083008 9.461999893188477,-4.130000114440918 -0.6449999809265137,-15.878999710083008z"></path></g><g opacity="1" transform="matrix(1,0,0,1,102.7249984741211,197.0850067138672)"><path fill="rgb(221,112,57)" fill-opacity="1" d=" M102.7249984741211,-0.32600000500679016 C97.33399963378906,-2.055000066757202 89.79399871826172,-3.434000015258789 80.8949966430664,-4.52400016784668 C77.17500305175781,-4.985000133514404 73.21499633789062,-5.385000228881836 69.07499694824219,-5.744999885559082 C69.07499694824219,-5.744999885559082 69.06500244140625,-5.744999885559082 69.06500244140625,-5.744999885559082 C18.21500015258789,-10.114999771118164 -60.255001068115234,-7.235000133514404 -62.845001220703125,-3.2639999389648438 C-63.595001220703125,-0.5649999976158142 -62.19499969482422,3.4049999713897705 -60.1349983215332,7.40500020980835 C-58.154998779296875,11.22599983215332 -55.584999084472656,15.085000038146973 -53.685001373291016,17.905000686645508 C-52.64500045776367,19.46500015258789 -51.814998626708984,20.704999923706055 -51.404998779296875,21.454999923706055 C-51.244998931884766,21.7450008392334 -51.154998779296875,21.96500015258789 -51.14500045776367,22.094999313354492 C-51.125,22.21500015258789 -51.17499923706055,22.264999389648438 -51.314998626708984,22.22599983215332 C-53.35499954223633,21.625 -69.50499725341797,-2.065000057220459 -77.3949966430664,-2.934000015258789 C-82.04499816894531,-3.4549999237060547 -91.74500274658203,-2.115000009536743 -103.04499816894531,-0.4050000011920929 C-103.04499816894531,-0.4050000011920929 -103.04499816894531,-20.315000534057617 -103.04499816894531,-20.315000534057617 C-103.625,-20.915000915527344 -104.19499969482422,-21.565000534057617 -104.75499725341797,-22.263999938964844 C-104.17500305175781,-21.614999771118164 -103.59500122070312,-21.02400016784668 -103.04499816894531,-20.485000610351562 C-101.3949966430664,-18.895000457763672 -99.91500091552734,-17.795000076293945 -98.91500091552734,-17.474000930786133 C-97.81500244140625,-17.125 -82.68499755859375,-16.77400016784668 -61.064998626708984,-16.084999084472656 C-19.625,-14.763999938964844 45.64500045776367,-12.194999694824219 81.67500305175781,-5.90500020980835 C81.71499633789062,-5.90500020980835 81.75499725341797,-5.894999980926514 81.79399871826172,-5.885000228881836 C90.41400146484375,-4.385000228881836 97.3550033569336,-2.674999952316284 101.8740005493164,-0.7049999833106995 C102.17500305175781,-0.5849999785423279 102.4540023803711,-0.4560000002384186 102.7249984741211,-0.32600000500679016z"></path></g><g opacity="1" transform="matrix(1,0,0,1,18.96500015258789,202.8699951171875)"><path fill="rgb(168,62,44)" fill-opacity="1" d=" M18.96500015258789,5.289999961853027 C18.96500015258789,5.289999961853027 12.505000114440918,0.11999999731779099 5.235000133514404,-0.6010000109672546 C2.984999895095825,-0.8299999833106995 -6.815000057220459,-0.1599999964237213 -19.28499984741211,0.8700000047683716 C-19.28499984741211,0.8700000047683716 -19.28499984741211,-2.390000104904175 -19.28499984741211,-2.390000104904175 C-6.255000114440918,-4.079999923706055 4.045000076293945,-5.289999961853027 6.304999828338623,-5.190000057220459 C13.46500015258789,-4.880000114440918 18.96500015258789,5.289999961853027 18.96500015258789,5.289999961853027z"></path></g><g opacity="1" transform="matrix(1,0,0,1,187.18600463867188,202.16400146484375)"><path fill="rgb(221,112,57)" fill-opacity="1" d=" M-4.789999961853027,-8.468999862670898 C0.6520000100135803,-9.618000030517578 7.449999809265137,1.2649999856948853 9.36299991607666,9.618000030517578 C5.09499979019165,1.2719999551773071 -9.36400032043457,-7.502999782562256 -4.789999961853027,-8.468999862670898z"></path></g><g opacity="1" transform="matrix(1,0,0,1,47.02199935913086,184.42799377441406)"><path fill="rgb(248,142,95)" fill-opacity="1" d=" M-15.470999717712402,-2.0810000896453857 C-28.07699966430664,-2.7290000915527344 -43.34199905395508,1.7769999504089355 -15.49899959564209,2.0829999446868896 C43.34299850463867,2.7290000915527344 36.42399978637695,0.5910000205039978 -15.470999717712402,-2.0810000896453857z"></path></g><g opacity="1" transform="matrix(1,0,0,1,238.58200073242188,207.9669952392578)"><path fill="rgb(57,193,68)" fill-opacity="1" d=" M-20.25,-9.899999618530273 C-4.986000061035156,-18.110000610351562 20.25,-3.486999988555908 14.621000289916992,8.942000389099121 C10.467000007629395,18.110000610351562 -6.802000045776367,7.495999813079834 -15.715999603271484,-6.616000175476074 C-9.928999900817871,-6.616000175476074 1.3539999723434448,-2.6480000019073486 6.020999908447266,1.003999948501587 C1.5399999618530273,-6.559999942779541 -13.704999923706055,-9.89900016784668 -20.25,-9.899999618530273z"></path></g><g opacity="1" transform="matrix(1,0,0,1,221.92799377441406,184.75)"><path fill="rgb(57,193,68)" fill-opacity="1" d=" M-12.079000473022461,6.394000053405762 C-14.541000366210938,2.2890000343322754 0.24899999797344208,-8.928000450134277 7.394999980926514,-3.561000108718872 C14.541999816894531,1.805999994277954 -1.99399995803833,8.687999725341797 -9.616000175476074,8.928999900817871 C-7.0370001792907715,3.617000102996826 -0.11699999868869781,-0.8930000066757202 -0.11699999868869781,-0.8930000066757202 C-6.333000183105469,0.8389999866485596 -12.079000473022461,6.394000053405762 -12.079000473022461,6.394000053405762z"></path></g><g opacity="1" transform="matrix(1,0,0,1,215.2449951171875,216.08299255371094)"><path fill="rgb(57,193,68)" fill-opacity="1" d=" M-1.8990000486373901,-8.972999572753906 C-5.980999946594238,-6.3470001220703125 -9.734000205993652,9.265999794006348 -0.0020000000949949026,9.126999855041504 C9.734000205993652,8.987000465393066 5.2769999504089355,-5.9070000648498535 1.5240000486373901,-9.265999794006348 C0.703000009059906,-8.881999969482422 2.930999994277954,-5.006999969482422 0.4690000116825104,3.378000020980835 C0.4690000116825104,-2.121000051498413 -1.8990000486373901,-8.972999572753906 -1.8990000486373901,-8.972999572753906z"></path></g><g opacity="1" transform="matrix(1,0,0,1,188.48500061035156,218.58299255371094)"><path fill="rgb(57,193,68)" fill-opacity="1" d=" M1.1890000104904175,-6.4070000648498535 C-3.2739999294281006,-5.209000110626221 -5.382999897003174,1.5290000438690186 -0.22499999403953552,3.9670000076293945 C4.934000015258789,6.406000137329102 5.382999897003174,-2.5829999446868896 3.303999900817871,-5.208000183105469 C1.2990000247955322,-4.482999801635742 -0.22499999403953552,1.190000057220459 -0.22499999403953552,1.190000057220459 C-0.6940000057220459,-2.6740000247955322 1.1890000104904175,-6.4070000648498535 1.1890000104904175,-6.4070000648498535z"></path></g><g opacity="1" transform="matrix(1,0,0,1,199.16400146484375,231.69200134277344)"><path fill="rgb(57,193,68)" fill-opacity="1" d=" M1.2929999828338623,-8.72700023651123 C6.800000190734863,-5.335000038146973 6.135000228881836,8.72700023651123 -0.3319999873638153,8.12399959564209 C-6.798999786376953,7.519999980926514 -6.683000087738037,-5.293000221252441 -0.9359999895095825,-8.72700023651123 C1.0579999685287476,-6.366000175476074 1.1759999990463257,2.0869998931884766 1.1759999990463257,2.0869998931884766 C2.5829999446868896,-1.8969999551773071 1.2929999828338623,-8.72700023651123 1.2929999828338623,-8.72700023651123z"></path></g><g opacity="1" transform="matrix(1,0,0,1,45.071998596191406,237.218994140625)"><path fill="rgb(57,193,68)" fill-opacity="1" d=" M1.406999945640564,-13.53600025177002 C-3.871000051498413,-14.0649995803833 -9.734000205993652,2.4809999465942383 0,8.274999618530273 C9.734000205993652,14.0649995803833 9.152999877929688,-7.6570000648498535 6.921999931335449,-12.008000373840332 C5.041999816894531,-12.97700023651123 1.527999997138977,1.4950000047683716 1.527999997138977,1.4950000047683716 C2.4619998931884766,-6.579999923706055 2.930999994277954,-12.887999534606934 1.406999945640564,-13.53600025177002z"></path></g><g opacity="1" transform="matrix(1,0,0,1,73.10700225830078,244.59300231933594)"><path fill="rgb(57,193,68)" fill-opacity="1" d=" M-6.923999786376953,-16.108999252319336 C3.3959999084472656,-14.074999809265137 13.911999702453613,0.1720000058412552 6.426000118255615,8.140000343322754 C-1.062000036239624,16.108999252319336 -13.913000106811523,-1.5679999589920044 -9.833000183105469,-13.4350004196167 C-3.2899999618530273,-9.847999572753906 1.4010000228881836,0.41200000047683716 1.4010000228881836,0.41200000047683716 C1.6349999904632568,-6.830999851226807 -6.923999786376953,-16.108999252319336 -6.923999786376953,-16.108999252319336z"></path></g><g opacity="1" transform="matrix(1,0,0,1,67.2020034790039,218.26499938964844)"><path fill="rgb(57,193,68)" fill-opacity="1" d=" M-8.642000198364258,1.2680000066757202 C-1.0190000534057617,8.027999877929688 8.642000198364258,4.770999908447266 7.739999771118164,-1.628999948501587 C6.8379998207092285,-8.029000282287598 -4.572000026702881,-6.5269999504089355 -8.642000198364258,-1.628999948501587 C-2.6610000133514404,0.5419999957084656 4.375999927520752,-0.009999999776482582 4.375999927520752,-0.009999999776482582 C0.9750000238418579,2.4739999771118164 -8.642000198364258,1.2680000066757202 -8.642000198364258,1.2680000066757202z"></path></g><g opacity="1" transform="matrix(1,0,0,1,244.60299682617188,212.26199340820312)"><path fill="rgb(95,223,100)" fill-opacity="1" d=" M-0.4699999988079071,-2.6470000743865967 C-6.019999980926514,-5.723999977111816 -7.6620001792907715,-2.062999963760376 -2.815999984741211,1.8300000429153442 C2.0320000648498535,5.723999977111816 7.6620001792907715,1.8609999418258667 -0.4699999988079071,-2.6470000743865967z"></path></g><g opacity="1" transform="matrix(1,0,0,1,227.14999389648438,182.968994140625)"><path fill="rgb(95,223,100)" fill-opacity="1" d=" M0.878000020980835,-1.7380000352859497 C-4.591000080108643,-4.261000156402588 -7.914000034332275,1.2239999771118164 -2.875999927520752,2.743000030517578 C2.1610000133514404,4.26200008392334 7.914000034332275,1.5110000371932983 0.878000020980835,-1.7380000352859497z"></path></g><g opacity="1" transform="matrix(1,0,0,1,77.38400268554688,242.54600524902344)"><path fill="rgb(95,223,100)" fill-opacity="1" d=" M2.5739998817443848,1.5750000476837158 C1.2869999408721924,-7.0370001792907715 -3.390000104904175,-5.989999771118164 -2.1389999389648438,-0.7870000004768372 C-0.8880000114440918,4.416999816894531 3.390000104904175,7.0370001792907715 2.5739998817443848,1.5750000476837158z"></path></g></g><g transform="matrix(1,0,0,1,0,0)" opacity="1" style="display: block;"><g opacity="1" transform="matrix(1,0,0,1,164.73699951171875,136.83999633789062)"><path fill="rgb(0,147,68)" fill-opacity="1" d=" M-2.01200008392334,-23.840999603271484 C11.718999862670898,-29.98699951171875 14.690999984741211,-3.2939999103546143 7.2270002365112305,11.666000366210938 C-1.9129999876022339,29.98699951171875 -14.690999984741211,27.683000564575195 -14.118000030517578,11.194000244140625"></path></g><g opacity="1" transform="matrix(1,0,0,1,173.35499572753906,128.93499755859375)"><path fill="rgb(57,181,73)" fill-opacity="1" d=" M-3.4690001010894775,-14.477999687194824 C0.00800000037997961,-16.26799964904785 7.205999851226807,4.482999801635742 -1.3009999990463257,16.26799964904785 C0.34200000762939453,6.031000137329102 -7.204999923706055,-12.553999900817871 -3.4690001010894775,-14.477999687194824z"></path></g></g><g transform="matrix(1,0,0,1,0,0)" opacity="1" style="display: block;"><g opacity="1" transform="matrix(1,0,0,1,166.7239990234375,136.9929962158203)"><path fill="rgb(0,147,68)" fill-opacity="1" d=" M-2.01200008392334,-23.840999603271484 C11.718999862670898,-29.98699951171875 14.690999984741211,-3.2939999103546143 7.2270002365112305,11.666000366210938 C-1.9129999876022339,29.98699951171875 -14.690999984741211,27.683000564575195 -14.116999626159668,11.194000244140625"></path></g><g opacity="1" transform="matrix(1,0,0,1,131.5229949951172,137.25799560546875)"><path fill="rgb(0,104,56)" fill-opacity="1" d=" M-21.85300064086914,-52.79399871826172 C-25.273000717163086,-42.744998931884766 -50.612998962402344,-23.334999084472656 -51.25,15.545999526977539 C-51.814998626708984,49.98699951171875 -24.30900001525879,52.79399871826172 13.751999855041504,37.729000091552734 C51.81399917602539,22.663999557495117 41.145999908447266,-24.28499984741211 25.663999557495117,-43.26599884033203"></path></g><g opacity="1" transform="matrix(1,0,0,1,142.08900451660156,155.08999633789062)"><path fill="rgb(0,147,68)" fill-opacity="1" d=" M-14.357000350952148,-20.336999893188477 C-17.781999588012695,-9.581000328063965 -28.972000122070312,16.34000015258789 -24.985000610351562,21.091999053955078 C-21.003000259399414,25.8439998626709 4.508999824523926,21.954999923706055 17.94700050354004,8.958000183105469 C28.233999252319336,-0.9909999966621399 28.972000122070312,-19.343000411987305 28.024999618530273,-24.915000915527344 C27.077999114990234,-19.575000762939453 24.011999130249023,-25.8439998626709 24.011999130249023,-25.8439998626709 C23.69499969482422,-18.18199920654297 18.95599937438965,-12.371000289916992 15.800000190734863,-21.429000854492188 C15.125,-10.753000259399414 2.0230000019073486,-6.573999881744385 0.004999999888241291,-23.7549991607666 C-4.210999965667725,-13.586000442504883 -14.357000350952148,-20.336999893188477 -14.357000350952148,-20.336999893188477z"></path></g><g opacity="1" transform="matrix(1,0,0,1,145.177001953125,160.85499572753906)"><path fill="rgb(57,181,73)" fill-opacity="1" d=" M3.0169999599456787,-11.178000450134277 C-3.484999895095825,-8.892999649047852 -21.802000045776367,14.428999900817871 -3.303999900817871,12.071999549865723 C15.194999694824219,9.717000007629395 21.802000045776367,-5.840000152587891 20.30299949645996,-10.017000198364258 C18.804000854492188,-14.196999549865723 12.263999938964844,-14.428999900817871 3.0169999599456787,-11.178000450134277z"></path></g><g opacity="1" transform="matrix(1,0,0,1,136.75599670410156,153.92100524902344)"><path fill="rgb(57,181,73)" fill-opacity="1" d=" M-1.3079999685287476,-4.478000164031982 C-5.796000003814697,-2.2769999504089355 -4.802000045776367,7.959000110626221 0.16599999368190765,4.304999828338623 C5.133999824523926,0.652999997138977 5.796000003814697,-7.959000110626221 -1.3079999685287476,-4.478000164031982z"></path></g><g opacity="1" transform="matrix(1,0,0,1,161.40899658203125,144.4530029296875)"><path fill="rgb(57,181,73)" fill-opacity="1" d=" M2.114000082015991,-2.9019999504089355 C-2.390000104904175,-2.2060000896453857 -6.617000102996826,2.6700000762939453 -0.5569999814033508,3.134999990463257 C5.504000186920166,3.5989999771118164 6.618000030517578,-3.5989999771118164 2.114000082015991,-2.9019999504089355z"></path></g><g opacity="1" transform="matrix(1,0,0,1,147.85499572753906,146.76199340820312)"><path fill="rgb(57,181,73)" fill-opacity="1" d=" M-0.1120000034570694,-2.2060000896453857 C-3.7209999561309814,-1.2649999856948853 -3.0439999103546143,2.681999921798706 0.33899998664855957,2.9149999618530273 C3.7209999561309814,3.1470000743865967 3.496000051498413,-3.1470000743865967 -0.1120000034570694,-2.2060000896453857z"></path></g><g opacity="1" transform="matrix(1,0,0,1,175.34300231933594,129.08799743652344)"><path fill="rgb(57,181,73)" fill-opacity="1" d=" M-3.4700000286102295,-14.477999687194824 C0.007000000216066837,-16.26799964904785 7.204999923706055,4.482999801635742 -1.3020000457763672,16.26799964904785 C0.34200000762939453,6.031000137329102 -7.204999923706055,-12.553999900817871 -3.4700000286102295,-14.477999687194824z"></path></g><g opacity="1" transform="matrix(1,0,0,1,129.9080047607422,41.915000915527344)"><path fill="rgb(0,147,68)" fill-opacity="1" d=" M21.284000396728516,-10.057000160217285 C14.979999542236328,-11.442000389099121 2.950000047683716,-23.31599998474121 14.28499984741211,-31.073999404907227 C1.9919999837875366,-32.85900115966797 -5.416999816894531,-15.932000160217285 0.22599999606609344,-11.12399959564209 C-7.638000011444092,-14.531999588012695 -7.710000038146973,-17.920000076293945 -5.203999996185303,-21.871999740600586 C-14.024999618530273,-19.236000061035156 -13.496000289916992,-7.168000221252441 -7.770999908447266,-3.7669999599456787 C-12.496000289916992,-6.105000019073486 -20.450000762939453,-1.9190000295639038 -21.284000396728516,5.359000205993652 C-18.69300079345703,2.759000062942505 -13.678000450134277,5.38100004196167 -13.678000450134277,5.38100004196167 C-19.900999069213867,14.416000366210938 -20.663999557495117,26.22599983215332 -17.724000930786133,32.858001708984375"></path></g><g opacity="1" transform="matrix(1,0,0,1,131.70599365234375,93.17900085449219)"><path fill="rgb(0,147,68)" fill-opacity="1" d=" M34.2140007019043,-0.49300000071525574 C28.420000076293945,3.802000045776367 32.95000076293945,16.937999725341797 32.861000061035156,24.007999420166016 C32.750999450683594,32.917999267578125 25.930999755859375,37.85100173950195 24.944000244140625,30.45599937438965 C22.785999298095703,41.582000732421875 15.298999786376953,39.90399932861328 15.038999557495117,29.65399932861328 C7.085999965667725,45.882999420166016 -3.13700008392334,33.358001708984375 2.0209999084472656,20.634000778198242 C-11.201000213623047,29.625999450683594 -14.487000465393066,17.645999908447266 -4.456999778747559,8.718999862670898 C-13.732000350952148,22.71299934387207 -20.274999618530273,11.902999877929688 -16.378000259399414,0.02800000086426735 C-16.378000259399414,0.02800000086426735 -27.6299991607666,5.940999984741211 -30.347000122070312,3.1730000972747803 C-34.2140007019043,-0.765999972820282 -24.197999954223633,-4.9710001945495605 -23.082000732421875,-15.855999946594238 C-22.66200065612793,-19.965999603271484 -23.082000732421875,-36.2859992980957 -15.47599983215332,-45.882999420166016"></path></g><g opacity="1" transform="matrix(1,0,0,1,155.1580047607422,65.16000366210938)"><path fill="rgb(0,147,68)" fill-opacity="1" d=" M-38.39099884033203,7.0929999351501465 C-43.487998962402344,-16.586999893188477 -22.42099952697754,-40.66299819946289 7.1579999923706055,-33.29999923706055 C35.9640007019043,-26.128000259399414 37.082000732421875,2.816999912261963 38.25600051879883,13.258000373840332 C43.487998962402344,28.173999786376953 30.801000595092773,40.66299819946289 10.527000427246094,36.92399978637695 C-8.267999649047852,33.45199966430664 -33.24300003051758,31.027000427246094 -38.39099884033203,7.0929999351501465z"></path></g><g opacity="1" transform="matrix(1,0,0,1,157.36199951171875,66.87799835205078)"><path fill="rgb(57,181,73)" fill-opacity="1" d=" M3.1659998893737793,-33.827999114990234 C-11.003000259399414,-35.16600036621094 -29.660999298095703,-20.5310001373291 -30.548999786376953,-7.803999900817871 C-32.38199996948242,-3.946000099182129 -39.61899948120117,14.904000282287598 -20.833999633789062,23.621000289916992 C-1.1549999713897705,32.75400161743164 12.916000366210938,35.16600036621094 27.099000930786133,29.475000381469727 C39.619998931884766,24.45199966430664 36.249000549316406,15.960000038146973 35.02799987792969,10.923999786376953 C35.18600082397461,-18.979999542236328 21.711999893188477,-32.07400131225586 3.1659998893737793,-33.827999114990234z"></path></g><g opacity="1" transform="matrix(1,0,0,1,188.43299865722656,85.14099884033203)"><path fill="rgb(67,200,80)" fill-opacity="1" d=" M4.978000164031982,-6.2820000648498535 C3.1659998893737793,-9.8149995803833 -8.206999778747559,-3.5739998817443848 -4.375,3.119999885559082 C-0.5429999828338623,9.814000129699707 8.206999778747559,0.023000000044703484 4.978000164031982,-6.2820000648498535z"></path></g><g opacity="1" transform="matrix(1,0,0,1,135.41799926757812,77.31199645996094)"><path fill="rgb(67,200,80)" fill-opacity="1" d=" M-6.059999942779541,-4.9720001220703125 C-0.6320000290870667,-10.62399959564209 12.218000411987305,3.6500000953674316 6.579999923706055,7.139999866485596 C0.9399999976158142,10.62399959564209 -12.218000411987305,1.444000005722046 -6.059999942779541,-4.9720001220703125z"></path></g><g opacity="1" transform="matrix(1,0,0,1,166.08700561523438,54.847999572753906)"><path fill="rgb(67,200,80)" fill-opacity="1" d=" M-1.2059999704360962,-19.56100082397461 C-24.63599967956543,-22.305999755859375 -27.975000381469727,10.298999786376953 0.0010000000474974513,16.30900001525879 C27.975000381469727,22.305999755859375 26.246999740600586,-16.3439998626709 -1.2059999704360962,-19.56100082397461z"></path></g><g opacity="1" transform="matrix(1,0,0,1,132.76699829101562,22.426000595092773)"><path fill="rgb(57,181,73)" fill-opacity="1" d=" M6.011000156402588,-9.932000160217285 C-0.010999999940395355,-9.70300006866455 -9.36299991607666,9.932000160217285 9.36299991607666,7.416999816894531 C3.7239999771118164,4.591000080108643 4.199999809265137,-6.480000019073486 6.011000156402588,-9.932000160217285z"></path></g><g opacity="1" transform="matrix(1,0,0,1,123.38700103759766,34.132999420166016)"><path fill="rgb(57,181,73)" fill-opacity="1" d=" M-2.944000005722046,-9.475000381469727 C-6.039999961853027,-5.464000225067139 1.9359999895095825,9.475000381469727 6.039999961853027,-2.061000108718872 C0.7369999885559082,-2.0399999618530273 -2.944000005722046,-9.475000381469727 -2.944000005722046,-9.475000381469727z"></path></g><g opacity="1" transform="matrix(1,0,0,1,139.1219940185547,120.45700073242188)"><path fill="rgb(57,181,73)" fill-opacity="1" d=" M5.230000019073486,-9.812000274658203 C1.9889999628067017,-11.64799976348877 -10.630000114440918,7.72599983215332 -1.9950000047683716,9.687999725341797 C6.642000198364258,11.64799976348877 10.630000114440918,-6.744999885559082 5.230000019073486,-9.812000274658203z"></path></g><g opacity="1" transform="matrix(1,0,0,1,152.0070037841797,119.26699829101562)"><path fill="rgb(57,181,73)" fill-opacity="1" d=" M2.6459999084472656,-8.449000358581543 C-0.7080000042915344,-10.029000282287598 -5.993000030517578,9.940999984741211 0.3610000014305115,9.993000030517578 C4.572999954223633,10.029000282287598 5.99399995803833,-6.866000175476074 2.6459999084472656,-8.449000358581543z"></path></g><g opacity="1" transform="matrix(1,0,0,1,116.71299743652344,41.847999572753906)"><path fill="rgb(57,181,73)" fill-opacity="1" d=" M6.502999782562256,1.1799999475479126 C2.2730000019073486,-3.8429999351501465 -1.4529999494552612,-4.638000011444092 -6.502999782562256,2.688999891281128 C-0.9459999799728394,-0.6830000281333923 3.119999885559082,4.63700008392334 6.502999782562256,1.1799999475479126z"></path></g><g opacity="1" transform="matrix(1,0,0,1,127.14299774169922,110.35399627685547)"><path fill="rgb(57,181,73)" fill-opacity="1" d=" M6.486999988555908,-8.348999977111816 C3.934999942779541,-9.755000114440918 -9.032999992370605,-0.6990000009536743 -4.507999897003174,4.5289998054504395 C0.014000000432133675,9.755000114440918 9.032999992370605,-6.939000129699707 6.486999988555908,-8.348999977111816z"></path></g><g opacity="1" transform="matrix(1,0,0,1,185.12899780273438,66.1520004272461)"><path fill="rgb(232,226,185)" fill-opacity="1" d=" M2.869999885559082,-13.611000061035156 C0.515999972820282,-18.009000778198242 -7.932000160217285,-16.610000610351562 -6.939000129699707,2.6429998874664307 C-4.436999797821045,18.009000778198242 4.934000015258789,12.295000076293945 7.932000160217285,8.871999740600586 C7.810999870300293,-3.0759999752044678 4.1620001792907715,-10.720999717712402 2.869999885559082,-13.611000061035156z"></path></g><g opacity="1" transform="matrix(1,0,0,1,144.75,61.805999755859375)"><path fill="rgb(232,226,185)" fill-opacity="1" d=" M17.302000045776367,8.034000396728516 C20.60700035095215,-6.211999893188477 11.619999885559082,-19.732999801635742 -0.3070000112056732,-16.15999984741211 C-16.13599967956543,-11.416999816894531 -20.60700035095215,11.788000106811523 9.005000114440918,19.732999801635742"></path></g><g opacity="1" transform="matrix(1,0,0,1,150.86900329589844,61.49100112915039)"><path fill="rgb(248,139,184)" fill-opacity="1" d=" M-4.245999813079834,-9.755999565124512 C-13.920999526977539,-6.631999969482422 -14.295000076293945,13.052000045776367 -1.850000023841858,12.503999710083008 C14.295999526977539,11.781000137329102 5.952000141143799,-13.052000045776367 -4.245999813079834,-9.755999565124512z"></path></g><g opacity="1" transform="matrix(1,0,0,1,149.49600219726562,62.066001892089844)"><path fill="rgb(226,219,230)" fill-opacity="1" d=" M-3.6080000400543213,-8.767000198364258 C-11.01099967956543,-5.492000102996826 -13.265999794006348,12.812000274658203 -1.718999981880188,11.822999954223633 C13.267000198364258,10.52299976348877 5.551000118255615,-12.812000274658203 -3.6080000400543213,-8.767000198364258z"></path></g><g opacity="1" transform="matrix(1,0,0,1,149.7100067138672,63.823001861572266)"><path fill="rgb(244,115,64)" fill-opacity="1" d=" M-3.749000072479248,-7.960000038146973 C-11.321000099182129,-5.288000106811523 -10.098999977111816,11.220999717712402 0.21199999749660492,9.312000274658203 C11.321000099182129,7.249000072479248 5.5289998054504395,-11.220999717712402 -3.749000072479248,-7.960000038146973z"></path></g><g opacity="1" transform="matrix(1,0,0,1,148.66700744628906,65.41799926757812)"><path fill="rgb(3,3,40)" fill-opacity="1" d=" M-2.944999933242798,-6.742000102996826 C-9.027000427246094,-4.604000091552734 -8.569000244140625,9.357999801635742 0.22599999606609344,7.114999771118164 C9.027000427246094,4.885000228881836 4.499000072479248,-9.357999801635742 -2.944999933242798,-6.742000102996826z"></path></g><g opacity="1" transform="matrix(1,0,0,1,153.71600341796875,60.75600051879883)"><path fill="rgb(226,219,230)" fill-opacity="1" d=" M1.00600004196167,-1.7120000123977661 C-1.2949999570846558,-3.882999897003174 -3.13100004196167,1.9839999675750732 -2.2760000228881836,2.927999973297119 C-1.4220000505447388,3.882999897003174 3.13100004196167,0.27399998903274536 1.00600004196167,-1.7120000123977661z"></path></g><g opacity="1" transform="matrix(1,0,0,1,145.58700561523438,67.23100280761719)"><path fill="rgb(226,219,230)" fill-opacity="1" d=" M-0.2750000059604645,-1.090999960899353 C-1.2799999713897705,-0.9789999723434448 -1.3370000123977661,1.2070000171661377 0.003000000026077032,0.8320000171661377 C1.3359999656677246,0.4569999873638153 0.8539999723434448,-1.2070000171661377 -0.2750000059604645,-1.090999960899353z"></path></g><g opacity="1" transform="matrix(1,0,0,1,184.97799682617188,64.10900115966797)"><path fill="rgb(248,139,184)" fill-opacity="1" d=" M1.2580000162124634,-10.267999649047852 C8.366000175476074,-8.427000045776367 9.829000473022461,12.32800006866455 0.9660000205039978,10.432000160217285 C-9.829000473022461,8.126999855041504 -6.701000213623047,-12.32800006866455 1.2580000162124634,-10.267999649047852z"></path></g><g opacity="1" transform="matrix(1,0,0,1,184.74099731445312,64.74199676513672)"><path fill="rgb(226,219,230)" fill-opacity="1" d=" M1.2740000486373901,-9.659000396728516 C8.543000221252441,-7.894000053405762 9.522000312805176,11.536999702453613 0.9350000023841858,9.706000328063965 C-9.522000312805176,7.473999977111816 -6.464000225067139,-11.536999702453613 1.2740000486373901,-9.659000396728516z"></path></g><g opacity="1" transform="matrix(1,0,0,1,185.2429962158203,65.0979995727539)"><path fill="rgb(244,115,64)" fill-opacity="1" d=" M-2.3010001182556152,-8.140999794006348 C-8.628000259399414,-7.081999778747559 -8.067000389099121,9.423999786376953 -0.4230000078678131,9.192999839782715 C8.628000259399414,8.937000274658203 5.439000129699707,-9.423999786376953 -2.3010001182556152,-8.140999794006348z"></path></g><g opacity="1" transform="matrix(1,0,0,1,183.98800659179688,65.16899871826172)"><path fill="rgb(3,3,40)" fill-opacity="1" d=" M-1.9129999876022339,-6.749000072479248 C-7.1570000648498535,-5.880000114440918 -6.690999984741211,7.815999984741211 -0.3499999940395355,7.630000114440918 C7.1570000648498535,7.40500020980835 4.508999824523926,-7.815999984741211 -1.9129999876022339,-6.749000072479248z"></path></g><g opacity="1" transform="matrix(1,0,0,1,188.36399841308594,61.71099853515625)"><path fill="rgb(226,219,230)" fill-opacity="1" d=" M1.152999997138977,-1.6619999408721924 C-0.6340000033378601,-3.8299999237060547 -2.874000072479248,1.7869999408721924 -2.2190001010894775,2.812000036239624 C-1.565000057220459,3.8299999237060547 2.875,0.4390000104904175 1.152999997138977,-1.6619999408721924z"></path></g><g opacity="1" transform="matrix(1,0,0,1,181.5780029296875,65.75499725341797)"><path fill="rgb(226,219,230)" fill-opacity="1" d=" M-0.08399999886751175,-0.9980000257492065 C-0.9509999752044678,-1.0329999923706055 -1.1690000295639038,1.0329999923706055 -0.003000000026077032,0.8669999837875366 C1.1690000295639038,0.6899999976158142 0.890999972820282,-0.9520000219345093 -0.08399999886751175,-0.9980000257492065z"></path></g><g opacity="1" transform="matrix(1,0,0,1,168.7550048828125,83.802001953125)"><path fill="rgb(221,22,36)" fill-opacity="1" d=" M3.187999963760376,13.824000358581543 C3.187999963760376,13.824000358581543 -4.315999984741211,23.20800018310547 -9.758999824523926,21.524999618530273 C-18.506000518798828,18.822999954223633 -23.93000030517578,2.677000045776367 -19.729000091552734,-6.482999801635742 C-15.151000022888184,-16.464000701904297 -2.510999917984009,-23.20800018310547 5.486999988555908,-21.53700065612793 C20.051000595092773,-18.499000549316406 23.930999755859375,7.013999938964844 7.291999816894531,21.541000366210938 C5.131999969482422,19.249000549316406 3.187999963760376,13.824000358581543 3.187999963760376,13.824000358581543z"></path></g><g opacity="1" transform="matrix(1,0,0,1,160.88400268554688,97.27100372314453)"><path fill="rgb(174,39,20)" fill-opacity="1" d=" M-5.0960001945495605,-5.802000045776367 C-5.5920000076293945,-1.2309999465942383 -3.7209999561309814,2.4639999866485596 -0.7979999780654907,4.291999816894531 C1.6130000352859497,5.802000045776367 5.591000080108643,3.5450000762939453 5.591000080108643,3.5450000762939453 C1.5429999828338623,3.234999895095825 -3.1070001125335693,0.03700000047683716 -5.0960001945495605,-5.802000045776367z"></path></g><g opacity="1" transform="matrix(1,0,0,1,162.67999267578125,88.0250015258789)"><path fill="rgb(119,4,11)" fill-opacity="1" d=" M-8.53499984741211,-10.682000160217285 C-12.03499984741211,-11.065999984741211 -11.335000038146973,-5.617000102996826 -7.063000202178955,-0.6470000147819519 C-2.7869999408721924,4.326000213623047 4.999000072479248,4.133999824523926 12.03499984741211,11.065999984741211 C8.854999542236328,4.869999885559082 -3.062000036239624,3.8559999465942383 -6.624000072479248,-1.7120000123977661 C-10.604000091552734,-7.946000099182129 -6.359000205993652,-10.434000015258789 -8.53499984741211,-10.682000160217285z"></path></g><g opacity="1" transform="matrix(1,0,0,1,163.4199981689453,93.63899993896484)"><path fill="rgb(102,0,19)" fill-opacity="1" d=" M-7.01800012588501,-6.915999889373779 C-5.627999782562256,1.8029999732971191 -1.1619999408721924,5.473999977111816 1.937999963760376,6.234000205993652 C4.72599983215332,6.915999889373779 7.01800012588501,2.444999933242798 7.01800012588501,2.444999933242798 C4.4120001792907715,-0.7360000014305115 -7.01800012588501,-6.915999889373779 -7.01800012588501,-6.915999889373779z"></path></g><g opacity="1" transform="matrix(1,0,0,1,160.86500549316406,91.5719985961914)"><path fill="rgb(219,57,93)" fill-opacity="1" d=" M-1.3020000457763672,-4.2789998054504395 C1.6890000104904175,-4.133999824523926 5.074999809265137,1.718000054359436 1.350000023841858,4.78000020980835 C-2.1649999618530273,2.5980000495910645 -5.074999809265137,-4.78000020980835 -1.3020000457763672,-4.2789998054504395z"></path></g><g opacity="1" transform="matrix(1,0,0,1,139.04600524902344,185.44900512695312)"><path fill="rgb(236,0,135)" fill-opacity="1" d=" M-13.51099967956543,-3.509999990463257 C-13.95199966430664,-8.654999732971191 -4.961999893188477,-9.529999732971191 3.509999990463257,-5.61299991607666 C11.982999801635742,-1.690999984741211 13.95199966430664,7.079999923706055 9.9350004196167,7.960000038146973 C5.918000221252441,8.84000015258789 7.2769999504089355,2.763000011444092 4.947000026702881,0.8489999771118164 C8.58899974822998,3.250999927520752 6.926000118255615,9.529999732971191 2.9000000953674316,8.927000045776367 C-1.0640000104904175,8.331999778747559 0.6349999904632568,4.064000129699707 -4.089000225067139,0.6169999837875366 C-7.6529998779296875,-1.9910000562667847 -13.437999725341797,-1.6319999694824219 -13.51099967956543,-3.509999990463257z"></path></g><g opacity="1" transform="matrix(1,0,0,1,140.78700256347656,184.9759979248047)"><path fill="rgb(248,71,239)" fill-opacity="1" d=" M7.960000038146973,-0.6579999923706055 C10.522000312805176,2.9579999446868896 11.177000045776367,6.3379998207092285 8.585000038146973,7.116000175476074 C6.866000175476074,7.632999897003174 6.1479997634887695,0.996999979019165 4.269999980926514,0.17399999499320984 C2.3889999389648438,-0.6470000147819519 4.01200008392334,1.406000018119812 4.679999828338623,2.946000099182129 C5.348999977111816,4.48799991607666 4.96999979019165,7.910999774932861 2.4809999465942383,7.5970001220703125 C0.17399999499320984,7.306000232696533 -0.3919999897480011,0.5220000147819519 -3.7009999752044678,-1.6260000467300415 C-11.177000045776367,-6.479000091552734 -4.454999923706055,-7.910999774932861 0.05700000002980232,-6.164000034332275 C3.184999942779541,-4.951000213623047 6.2729997634887695,-3.0460000038146973 7.960000038146973,-0.6579999923706055z"></path></g><g opacity="1" transform="matrix(1,0,0,1,149.58700561523438,192.48699951171875)"><path fill="rgb(81,78,72)" fill-opacity="1" d=" M0.9480000138282776,-1.9869999885559082 C1.8029999732971191,-0.7429999709129333 1.0190000534057617,2.7170000076293945 -1.2860000133514404,2.677999973297119 C-0.7480000257492065,2.062999963760376 -1.7300000190734863,-0.3050000071525574 -1.8029999732971191,-1.284999966621399 C-1.6619999408721924,-2.4679999351501465 0.4480000138282776,-2.7170000076293945 0.9480000138282776,-1.9869999885559082z"></path></g><g opacity="1" transform="matrix(1,0,0,1,143.50399780273438,192.7689971923828)"><path fill="rgb(81,78,72)" fill-opacity="1" d=" M0.949999988079071,-1.9869999885559082 C1.8029999732971191,-0.7379999756813049 1.0230000019073486,2.7190001010894775 -1.2829999923706055,2.677999973297119 C-0.7450000047683716,2.066999912261963 -1.7269999980926514,-0.3059999942779541 -1.8029999732971191,-1.2860000133514404 C-1.659999966621399,-2.4679999351501465 0.45100000500679016,-2.7190001010894775 0.949999988079071,-1.9869999885559082z"></path></g><g opacity="1" transform="matrix(1,0,0,1,149.72900390625,192.74400329589844)"><path fill="rgb(119,117,116)" fill-opacity="1" d=" M0.4169999957084656,-1.6710000038146973 C1.5160000324249268,-1.6449999809265137 1.2089999914169312,0.7049999833106995 0.10599999874830246,1.2120000123977661 C-0.9980000257492065,1.718999981880188 -1.5149999856948853,-1.718999981880188 0.4169999957084656,-1.6710000038146973z"></path></g><g opacity="1" transform="matrix(1,0,0,1,143.6929931640625,193.0800018310547)"><path fill="rgb(119,117,116)" fill-opacity="1" d=" M0.4169999957084656,-1.6740000247955322 C1.5149999856948853,-1.6460000276565552 1.2100000381469727,0.7039999961853027 0.10700000077486038,1.2120000123977661 C-0.9980000257492065,1.718999981880188 -1.5149999856948853,-1.718999981880188 0.4169999957084656,-1.6740000247955322z"></path></g><g opacity="1" transform="matrix(1,0,0,1,122.38500213623047,186.1840057373047)"><path fill="rgb(236,0,135)" fill-opacity="1" d=" M-14.25,-4.323999881744385 C-14.279999732971191,-10.246999740600586 -4.552999973297119,-11.076000213623047 4.209000110626221,-6.4039998054504395 C12.970000267028809,-1.7269999980926514 14.331999778747559,8.39799976348877 9.942999839782715,9.331000328063965 C5.554999828338623,10.26200008392334 7.534999847412109,3.3010001182556152 5.197999954223633,1.0549999475479126 C8.899999618530273,3.8889999389648438 6.577000141143799,11.074999809265137 2.305000066757202,10.303000450134277 C-1.899999976158142,9.538000106811523 0.28999999165534973,4.664999961853027 -4.486000061035156,0.609000027179718 C-8.08899974822998,-2.4609999656677246 -14.331999778747559,-2.1640000343322754 -14.25,-4.323999881744385z"></path></g><g opacity="1" transform="matrix(1,0,0,1,124.25900268554688,185.66000366210938)"><path fill="rgb(248,71,239)" fill-opacity="1" d=" M8.597999572753906,-0.6050000190734863 C11.036999702453613,3.6029999256134033 11.449999809265137,7.504000186920166 8.602999687194824,8.347999572753906 C6.7129998207092285,8.907999992370605 6.508999824523926,1.2640000581741333 4.564000129699707,0.27900001406669617 C2.615000009536743,-0.7039999961853027 4.181000232696533,1.6920000314712524 4.767000198364258,3.4760000705718994 C5.35099983215332,5.261000156402588 4.6519999504089355,9.190999984741211 2.007999897003174,8.777999877929688 C-0.4449999928474426,8.399999618530273 -0.47099998593330383,0.5870000123977661 -3.8389999866485596,-1.9470000267028809 C-11.449999809265137,-7.677999973297119 -4.110000133514404,-9.190999984741211 0.5839999914169312,-7.0920000076293945 C3.8380000591278076,-5.63700008392334 6.989999771118164,-3.382999897003174 8.597999572753906,-0.6050000190734863z"></path></g><g opacity="1" transform="matrix(1,0,0,1,133.14199829101562,194.47900390625)"><path fill="rgb(81,78,72)" fill-opacity="1" d=" M1.1039999723434448,-2.2799999713897705 C1.9149999618530273,-0.8320000171661377 0.7770000100135803,3.128999948501587 -1.694000005722046,3.0399999618530273 C-1.062999963760376,2.3440001010894775 -1.9149999618530273,-0.39899998903274536 -1.9119999408721924,-1.5269999504089355 C-1.6579999923706055,-2.885999917984009 0.6299999952316284,-3.130000114440918 1.1039999723434448,-2.2799999713897705z"></path></g><g opacity="1" transform="matrix(1,0,0,1,126.58699798583984,194.68299865722656)"><path fill="rgb(81,78,72)" fill-opacity="1" d=" M1.1050000190734863,-2.2809998989105225 C1.9149999618530273,-0.828000009059906 0.777999997138977,3.131999969482422 -1.6929999589920044,3.0399999618530273 C-1.062000036239624,2.3469998836517334 -1.9149999618530273,-0.39899998903274536 -1.9119999408721924,-1.5269999504089355 C-1.6549999713897705,-2.884999990463257 0.6309999823570251,-3.131999969482422 1.1050000190734863,-2.2809998989105225z"></path></g><g opacity="1" transform="matrix(1,0,0,1,133.33200073242188,194.74000549316406)"><path fill="rgb(119,117,116)" fill-opacity="1" d=" M0.4480000138282776,-1.8910000324249268 C1.6239999532699585,-1.8380000591278076 1.0959999561309814,0.8569999933242798 -0.13300000131130219,1.4170000553131104 C-1.3630000352859497,1.9809999465942383 -1.6230000257492065,-1.9819999933242798 0.4480000138282776,-1.8910000324249268z"></path></g><g opacity="1" transform="matrix(1,0,0,1,126.822998046875,195.00599670410156)"><path fill="rgb(119,117,116)" fill-opacity="1" d=" M0.44699999690055847,-1.8910000324249268 C1.6239999532699585,-1.8359999656677246 1.093999981880188,0.859000027179718 -0.13500000536441803,1.4220000505447388 C-1.3630000352859497,1.9819999933242798 -1.6230000257492065,-1.9809999465942383 0.44699999690055847,-1.8910000324249268z"></path></g></g><g transform="matrix(0.9922155141830444,-0.12453267723321915,0.12453267723321915,0.9922155141830444,-7.6546783447265625,20.544086456298828)" opacity="1" style="display: block;"><g opacity="1" transform="matrix(1,0,0,1,170.96200561523438,85.20600128173828)"><path fill="rgb(204,14,29)" fill-opacity="1" d=" M-16.253000259399414,-9.604999542236328 C-18.742000579833984,-4.841000080108643 -18.413999557495117,1.9259999990463257 -10.119999885559082,5.679999828338623 C-1.8289999961853027,9.435999870300293 -6.289000034332275,21.82900047302246 -3.9670000076293945,23.988000869750977 C-1.6430000066757202,26.145999908447266 8.152000427246094,19.915000915527344 11.253000259399414,14.333999633789062 C15.100000381469727,7.4120001792907715 18.742000579833984,-12.947999954223633 8.300000190734863,-19.54800033569336 C-2.1440000534057617,-26.145999908447266 -13.92300033569336,-14.062999725341797 -16.253000259399414,-9.604999542236328z"></path></g><g opacity="1" transform="matrix(1,0,0,1,171.2740020751953,86.1760025024414)"><path fill="rgb(236,28,35)" fill-opacity="1" d=" M3.8359999656677246,-20.33099937438965 C-4.646999835968018,-22.885000228881836 -13.595000267028809,-16.451000213623047 -15.229000091552734,-7.734000205993652 C-16.216999053955078,-2.4830000400543213 -9.164999961853027,2.6010000705718994 -5.618000030517578,5.968999862670898 C-1.4739999771118164,9.902999877929688 -2.671999931335449,19.433000564575195 0.26899999380111694,21.19700050354004 C3.0769999027252197,22.884000778198242 9.833999633789062,14.178000450134277 11.48900032043457,10.220999717712402 C14.961000442504883,1.9199999570846558 16.218000411987305,-16.600000381469727 3.8359999656677246,-20.33099937438965z"></path></g><g opacity="1" transform="matrix(1,0,0,1,182.10699462890625,86.82499694824219)"><path fill="rgb(241,125,139)" fill-opacity="1" d=" M-1.0230000019073486,-13.519000053405762 C4.500999927520752,-8.505000114440918 2.609999895095825,7.546000003814697 -4.5,14.29800033569336 C2.494999885559082,5.034999847412109 -4.1579999923706055,-14.29800033569336 -1.0230000019073486,-13.519000053405762z"></path></g></g><g transform="matrix(1,0,0,1,0,0)" opacity="1" style="display: block;"><g opacity="1" transform="matrix(1,0,0,1,68.56700134277344,162.74000549316406)"><path fill="rgb(0,104,56)" fill-opacity="1" d=" M11.006999969482422,3.7200000286102295 C-2.869999885559082,12.157999992370605 -18.94300079345703,10.536999702453613 -18.94300079345703,6.334000110626221 C-18.94300079345703,3.428999900817871 -2.1530001163482666,2.947000026702881 8.73799991607666,-8.425000190734863 C13.079999923706055,-12.157999992370605 18.94300079345703,-6.3480000495910645 16.086999893188477,-0.9340000152587891 C13.230999946594238,4.480999946594238 11.006999969482422,3.7200000286102295 11.006999969482422,3.7200000286102295z"></path></g><g opacity="1" transform="matrix(1,0,0,1,84.45500183105469,178.13600158691406)"><path fill="rgb(0,104,56)" fill-opacity="1" d=" M1.9259999990463257,-12.61299991607666 C-5.334000110626221,3.736999988555908 -15.991999626159668,5.138999938964844 -14.520000457763672,8.876999855041504 C-13.050000190734863,12.61299991607666 8.732999801635742,5.140999794006348 15.993000030517578,-11.208999633789062"></path></g><g opacity="1" transform="matrix(1,0,0,1,66.7490005493164,171.86700439453125)"><path fill="rgb(0,104,56)" fill-opacity="1" d=" M23.115999221801758,-2.694999933242798 C12.428999900817871,12.368000030517578 -19.694000244140625,17.094999313354492 -25.70400047302246,4.989999771118164 C-16.05699920654297,4.534999847412109 -0.9559999704360962,2.5969998836517334 10.208000183105469,-10.623000144958496 C17.865999221801758,-17.0939998626709 25.70400047302246,-6.3420000076293945 23.115999221801758,-2.694999933242798z"></path></g><g opacity="1" transform="matrix(1,0,0,1,92.29199981689453,158.23199462890625)"><path fill="rgb(145,213,36)" fill-opacity="1" d=" M23.16900062561035,-11.989999771118164 C18.496999740600586,22.76099967956543 -10.223999977111816,30.225000381469727 -1.6759999990463257,17.60300064086914 C-15.907999992370605,27.947999954223633 -15.305000305175781,15.718000411987305 -5.910999774932861,7.290999889373779 C-19.91200065612793,14.857000350952148 -28.898000717163086,4.76800012588501 -12.902000427246094,-1.7690000534057617 C-23.434999465942383,2.072999954223633 -26.940000534057617,-4.953000068664551 -14.439000129699707,-10.439000129699707 C-6.807000160217285,-19.031999588012695 -3.305999994277954,-30.225000381469727 12.795999526977539,-29.231000900268555 C28.89900016784668,-28.23699951171875 23.16900062561035,-11.989999771118164 23.16900062561035,-11.989999771118164z"></path></g><g opacity="1" transform="matrix(1,0,0,1,99.19200134277344,133.7209930419922)"><path fill="rgb(0,147,68)" fill-opacity="1" d=" M4.418000221252441,-28.875999450683594 C-8.63700008392334,-31.35700035095215 -21.73900032043457,-16.902999877929688 -24.024999618530273,3.4830000400543213 C-25.958999633789062,20.729000091552734 -17.69499969482422,15 -12.880999565124512,5.195000171661377 C-22.815000534057617,31.356000900268555 -7.386000156402588,26.21500015258789 -0.125,11.267999649047852 C-6.478000164031982,28.55299949645996 3.9590001106262207,27.150999069213867 6.710999965667725,14.069999694824219 C9.857000350952148,28.55299949645996 20.597999572753906,24.062000274658203 23.427000045776367,0.5249999761581421 C25.958999633789062,-20.545000076293945 15.416000366210938,-26.785999298095703 4.418000221252441,-28.875999450683594z"></path></g><g opacity="1" transform="matrix(1,0,0,1,96.90899658203125,125.5530014038086)"><path fill="rgb(57,181,73)" fill-opacity="1" d=" M11.864999771118164,-25.100000381469727 C-1.3960000276565552,-27.22800064086914 -16.679000854492188,-10.937000274658203 -20.430999755859375,4.438000202178955 C-24.049999237060547,19.261999130249023 -16.770999908447266,14.812999725341797 -8.640000343322754,3.2039999961853027 C-12.829999923706055,12.489999771118164 -13.786999702453613,22.281999588012695 -11.36400032043457,24.229999542236328 C-8.640000343322754,26.420000076293945 -1.6670000553131104,20.732999801635742 5.261000156402588,8.310999870300293 C2.5940001010894775,15.442000389099121 -1.6690000295639038,24.45199966430664 1.9420000314712524,25.84000015258789 C5.552000045776367,27.22800064086914 8.531999588012695,9.357000350952148 8.531999588012695,9.357000350952148 C9.434000015258789,17.25 9.243000030517578,21.31800079345703 12.317000389099121,21.65999984741211 C18.558000564575195,22.357999801635742 24.049999237060547,-5.281000137329102 21.437999725341797,-13.29800033569336 C21.25200080871582,-4.322000026702881 14.097999572753906,2.180000066757202 14.097999572753906,2.180000066757202 C18.089000701904297,-9.491000175476074 19.691999435424805,-23.844999313354492 11.864999771118164,-25.100000381469727z"></path></g><g opacity="1" transform="matrix(1,0,0,1,96.70899963378906,112.46800231933594)"><path fill="rgb(0,166,81)" fill-opacity="1" d=" M9.6850004196167,-11.630000114440918 C0.4009999930858612,-13.588000297546387 -20.625,4.535999774932861 -5.576000213623047,9.060999870300293 C9.472000122070312,13.588000297546387 20.625,-9.321999549865723 9.6850004196167,-11.630000114440918z"></path></g><g opacity="1" transform="matrix(1,0,0,1,95.55500030517578,130.86399841308594)"><path fill="rgb(0,166,81)" fill-opacity="1" d=" M-0.22599999606609344,-6.440999984741211 C-5.390999794006348,-7.488999843597412 -10.449999809265137,5.013000011444092 -5.186999797821045,6.250999927520752 C0.07599999755620956,7.489999771118164 10.449999809265137,-4.27400016784668 -0.22599999606609344,-6.440999984741211z"></path></g><g opacity="1" transform="matrix(1,0,0,1,85.58599853515625,124.53199768066406)"><path fill="rgb(0,166,81)" fill-opacity="1" d=" M1.774999976158142,-7.6570000648498535 C-1.531999945640564,-6.920000076293945 -9.501999855041504,2.6480000019073486 -4.690999984741211,5.1529998779296875 C0.12099999934434891,7.6570000648498535 9.501999855041504,-6.072000026702881 2.556999921798706,-7.6570000648498535"></path></g><g opacity="1" transform="matrix(1,0,0,1,110.0780029296875,115.02400207519531)"><path fill="rgb(0,166,81)" fill-opacity="1" d=" M1.3930000066757202,-3.759000062942505 C-1.1380000114440918,-4.598999977111816 -3.9230000972747803,2.8389999866485596 -1.0670000314712524,3.7200000286102295 C1.7899999618530273,4.598999977111816 3.9230000972747803,-2.9200000762939453 1.3930000066757202,-3.759000062942505z"></path></g><g opacity="1" transform="matrix(1,0,0,1,104.93499755859375,126.45099639892578)"><path fill="rgb(0,166,81)" fill-opacity="1" d=" M0.968999981880188,-3.0190000534057617 C-0.8820000290870667,-2.880000114440918 -3.877000093460083,1.996999979019165 -0.8769999742507935,2.615000009536743 C2.121000051498413,3.2339999675750732 3.877000093460083,-3.2339999675750732 0.968999981880188,-3.0190000534057617z"></path></g><g opacity="1" transform="matrix(1,0,0,1,100.65699768066406,168.74600219726562)"><path fill="rgb(169,244,39)" fill-opacity="1" d=" M10.8149995803833,-10.387999534606934 C6.439000129699707,3.0769999027252197 -5.176000118255615,12.479000091552734 -10.814000129699707,10.73799991607666 C-9.460000038146973,5.63100004196167 -0.10199999809265137,0.7559999823570251 5.875,-12.479000091552734 C6.7769999504089355,-11.89799976348877 5.510000228881836,-4.60099983215332 -0.6880000233650208,2.9609999656677246 C5.197000026702881,-2.0309998989105225 8.649999618530273,-11.89799976348877 10.8149995803833,-10.387999534606934z"></path></g><g opacity="1" transform="matrix(1,0,0,1,88.88300323486328,168.76600646972656)"><path fill="rgb(169,244,39)" fill-opacity="1" d=" M12.347999572753906,-9.517000198364258 C9.335000038146973,0.1979999989271164 -3.880000114440918,14.62600040435791 -11.112000465393066,10.97700023651123 C-12.347999572753906,4.0269999504089355 0.5479999780654907,-5.304999828338623 5.171999931335449,-14.62600040435791 C4.494999885559082,-11.41100025177002 7.836999893188477,-9.517000198364258 7.836999893188477,-9.517000198364258 C6.709000110626221,-5.416999816894531 -5.468999862670898,6.888000011444092 -5.468999862670898,6.888000011444092 C2.875,3.4059998989105225 9.303000450134277,-8.664999961853027 9.303000450134277,-8.664999961853027 C10.994000434875488,-8.781999588012695 12.347999572753906,-9.517000198364258 12.347999572753906,-9.517000198364258z"></path></g><g opacity="1" transform="matrix(1,0,0,1,80.03099822998047,161.76199340820312)"><path fill="rgb(169,244,39)" fill-opacity="1" d=" M9.246999740600586,-2.513000011444092 C4.244999885559082,4.7829999923706055 -8.876999855041504,6.502999782562256 -9.062000274658203,1.7230000495910645 C-9.246999740600586,-3.055999994277954 0.017999999225139618,-3.8010001182556152 1.9819999933242798,-6.502999782562256 C1.2410000562667847,-4.449999809265137 2.322000026702881,-3.4760000705718994 2.322000026702881,-3.4760000705718994 C-0.257999986410141,-1.6619999408721924 -6.090000152587891,1.1990000009536743 -6.090000152587891,1.1990000009536743 C-1.9179999828338623,1.7039999961853027 3.947000026702881,-2.513000011444092 3.947000026702881,-2.513000011444092 C6.428999900817871,-2.359999895095825 9.246999740600586,-2.513000011444092 9.246999740600586,-2.513000011444092z"></path></g><g opacity="1" transform="matrix(1,0,0,1,75.47100067138672,152.843994140625)"><path fill="rgb(169,244,39)" fill-opacity="1" d=" M5.988999843597412,-0.017999999225139618 C3.5429999828338623,4.353000164031982 -5.988999843597412,4.353000164031982 -5.336999893188477,1.4509999752044678 C-4.686999797821045,-1.4509999752044678 1.4730000495910645,-2.494999885559082 4.6519999504089355,-4.3520002365112305 C5.011000156402588,-3.191999912261963 4.6519999504089355,-2.0320000648498535 4.6519999504089355,-2.0320000648498535 C3.2060000896453857,-0.4059999883174896 -1.9800000190734863,1.218999981880188 -1.9800000190734863,1.218999981880188 C0.9520000219345093,1.7999999523162842 5.988999843597412,-0.017999999225139618 5.988999843597412,-0.017999999225139618z"></path></g><g opacity="1" transform="matrix(1,0,0,1,59.7869987487793,166.4199981689453)"><path fill="rgb(57,181,73)" fill-opacity="1" d=" M9.609999656677246,-4.614999771118164 C1.7130000591278076,-1.1360000371932983 -10.012999534606934,1.0269999504089355 -10.163000106811523,2.6549999713897705 C-10.314000129699707,4.2820000648498535 -0.17900000512599945,4.614999771118164 10.314000129699707,0.8109999895095825 C8.329000473022461,-0.8270000219345093 9.609999656677246,-4.614999771118164 9.609999656677246,-4.614999771118164z"></path></g><g opacity="1" transform="matrix(1,0,0,1,60.64799880981445,178.8679962158203)"><path fill="rgb(57,181,73)" fill-opacity="1" d=" M6.867000102996826,-6.076000213623047 C0.703000009059906,-1.3569999933242798 -13.829000473022461,0.14399999380111694 -17.34000015258789,-1.7369999885559082 C-17.843000411987305,3.502000093460083 5.211999893188477,6.076000213623047 17.841999053955078,-6.076000213623047 C15.28499984741211,-5.5370001792907715 13.482000350952148,-6.076000213623047 13.482000350952148,-6.076000213623047 C10.776000022888184,-2.75 1.1759999990463257,-1.0490000247955322 1.1759999990463257,-1.0490000247955322 C4.310999870300293,-2.440999984741211 6.867000102996826,-6.076000213623047 6.867000102996826,-6.076000213623047z"></path></g></g></g></g></svg>