<svg xmlns="http://www.w3.org/2000/svg" xmlns:xlink="http://www.w3.org/1999/xlink" viewBox="0 0 1080 1080" width="1080" height="1080" preserveAspectRatio="xMidYMid meet" style="width: 100%; height: 100%; transform: translate3d(0px, 0px, 0px); content-visibility: visible;"><defs><clipPath id="__lottie_element_2464"><rect width="1080" height="1080" x="0" y="0"></rect></clipPath><clipPath id="__lottie_element_2479"><path d="M0,0 L1080,0 L1080,1080 L0,1080z"></path></clipPath></defs><g clip-path="url(#__lottie_element_2464)"><g clip-path="url(#__lottie_element_2479)" style="display: block;" transform="matrix(1,0,0,1,0,0)" opacity="1"><g style="display: block;" transform="matrix(0.9957147240638733,0,0,0.9957147240638733,585.759033203125,388.6075439453125)" opacity="1"><g opacity="1" transform="matrix(1,0,0,1,-330,-132)"><path fill="rgb(2,252,10)" fill-opacity="1" d=" M0,-15 C8.278499603271484,-15 15,-8.278499603271484 15,0 C15,8.278499603271484 8.278499603271484,15 0,15 C-8.278499603271484,15 -15,8.278499603271484 -15,0 C-15,-8.278499603271484 -8.278499603271484,-15 0,-15z"></path><path stroke-linecap="butt" stroke-linejoin="miter" fill-opacity="0" stroke-miterlimit="4" stroke="rgb(59,189,64)" stroke-opacity="1" stroke-width="0" d=" M0,-15 C8.278499603271484,-15 15,-8.278499603271484 15,0 C15,8.278499603271484 8.278499603271484,15 0,15 C-8.278499603271484,15 -15,8.278499603271484 -15,0 C-15,-8.278499603271484 -8.278499603271484,-15 0,-15z"></path></g></g><g style="display: block;" transform="matrix(0.9957147240638733,0,0,0.9957147240638733,585.6710205078125,432.51629638671875)" opacity="1"><g opacity="1" transform="matrix(1,0,0,1,-330,-132)"><path fill="rgb(156,160,156)" fill-opacity="1" d=" M0,-10 C5.519000053405762,-10 10,-5.519000053405762 10,0 C10,5.519000053405762 5.519000053405762,10 0,10 C-5.519000053405762,10 -10,5.519000053405762 -10,0 C-10,-5.519000053405762 -5.519000053405762,-10 0,-10z"></path><path stroke-linecap="butt" stroke-linejoin="miter" fill-opacity="0" stroke-miterlimit="4" stroke="rgb(59,189,64)" stroke-opacity="1" stroke-width="0" d=" M0,-10 C5.519000053405762,-10 10,-5.519000053405762 10,0 C10,5.519000053405762 5.519000053405762,10 0,10 C-5.519000053405762,10 -10,5.519000053405762 -10,0 C-10,-5.519000053405762 -5.519000053405762,-10 0,-10z"></path></g></g><g style="display: block;" transform="matrix(0.9957147240638733,0,0,0.9957147240638733,630.6727905273438,385.5247802734375)" opacity="1"><g opacity="1" transform="matrix(1,0,0,1,-330,-132)"><path fill="rgb(79,193,83)" fill-opacity="1" d=" M0,-5 C2.759500026702881,-5 5,-2.759500026702881 5,0 C5,2.759500026702881 2.759500026702881,5 0,5 C-2.759500026702881,5 -5,2.759500026702881 -5,0 C-5,-2.759500026702881 -2.759500026702881,-5 0,-5z"></path><path stroke-linecap="butt" stroke-linejoin="miter" fill-opacity="0" stroke-miterlimit="4" stroke="rgb(59,189,64)" stroke-opacity="1" stroke-width="0" d=" M0,-5 C2.759500026702881,-5 5,-2.759500026702881 5,0 C5,2.759500026702881 2.759500026702881,5 0,5 C-2.759500026702881,5 -5,2.759500026702881 -5,0 C-5,-2.759500026702881 -2.759500026702881,-5 0,-5z"></path></g></g><g style="display: block;" transform="matrix(0,0.9957147240638733,-0.9957147240638733,0,647.4837036132812,585.6710205078125)" opacity="1"><g opacity="1" transform="matrix(1,0,0,1,-330,-132)"><path fill="rgb(156,160,156)" fill-opacity="1" d=" M0,-10 C5.519000053405762,-10 10,-5.519000053405762 10,0 C10,5.519000053405762 5.519000053405762,10 0,10 C-5.519000053405762,10 -10,5.519000053405762 -10,0 C-10,-5.519000053405762 -5.519000053405762,-10 0,-10z"></path><path stroke-linecap="butt" stroke-linejoin="miter" fill-opacity="0" stroke-miterlimit="4" stroke="rgb(59,189,64)" stroke-opacity="1" stroke-width="0" d=" M0,-10 C5.519000053405762,-10 10,-5.519000053405762 10,0 C10,5.519000053405762 5.519000053405762,10 0,10 C-5.519000053405762,10 -10,5.519000053405762 -10,0 C-10,-5.519000053405762 -5.519000053405762,-10 0,-10z"></path></g></g><g style="display: block;" transform="matrix(0,0.9957147240638733,-0.9957147240638733,0,694.4752197265625,630.6727905273438)" opacity="1"><g opacity="1" transform="matrix(1,0,0,1,-330,-132)"><path fill="rgb(79,193,83)" fill-opacity="1" d=" M0,-5 C2.759500026702881,-5 5,-2.759500026702881 5,0 C5,2.759500026702881 2.759500026702881,5 0,5 C-2.759500026702881,5 -5,2.759500026702881 -5,0 C-5,-2.759500026702881 -2.759500026702881,-5 0,-5z"></path><path stroke-linecap="butt" stroke-linejoin="miter" fill-opacity="0" stroke-miterlimit="4" stroke="rgb(59,189,64)" stroke-opacity="1" stroke-width="0" d=" M0,-5 C2.759500026702881,-5 5,-2.759500026702881 5,0 C5,2.759500026702881 2.759500026702881,5 0,5 C-2.759500026702881,5 -5,2.759500026702881 -5,0 C-5,-2.759500026702881 -2.759500026702881,-5 0,-5z"></path></g></g><g style="display: block;" transform="matrix(-0.9957147240638733,0,0,-0.9957147240638733,494.3290100097656,647.4837036132812)" opacity="1"><g opacity="1" transform="matrix(1,0,0,1,-330,-132)"><path fill="rgb(156,160,156)" fill-opacity="1" d=" M0,-10 C5.519000053405762,-10 10,-5.519000053405762 10,0 C10,5.519000053405762 5.519000053405762,10 0,10 C-5.519000053405762,10 -10,5.519000053405762 -10,0 C-10,-5.519000053405762 -5.519000053405762,-10 0,-10z"></path><path stroke-linecap="butt" stroke-linejoin="miter" fill-opacity="0" stroke-miterlimit="4" stroke="rgb(59,189,64)" stroke-opacity="1" stroke-width="0" d=" M0,-10 C5.519000053405762,-10 10,-5.519000053405762 10,0 C10,5.519000053405762 5.519000053405762,10 0,10 C-5.519000053405762,10 -10,5.519000053405762 -10,0 C-10,-5.519000053405762 -5.519000053405762,-10 0,-10z"></path></g></g><g style="display: block;" transform="matrix(-0.9957147240638733,0,0,-0.9957147240638733,449.3272399902344,694.4752197265625)" opacity="1"><g opacity="1" transform="matrix(1,0,0,1,-330,-132)"><path fill="rgb(79,193,83)" fill-opacity="1" d=" M0,-5 C2.759500026702881,-5 5,-2.759500026702881 5,0 C5,2.759500026702881 2.759500026702881,5 0,5 C-2.759500026702881,5 -5,2.759500026702881 -5,0 C-5,-2.759500026702881 -2.759500026702881,-5 0,-5z"></path><path stroke-linecap="butt" stroke-linejoin="miter" fill-opacity="0" stroke-miterlimit="4" stroke="rgb(59,189,64)" stroke-opacity="1" stroke-width="0" d=" M0,-5 C2.759500026702881,-5 5,-2.759500026702881 5,0 C5,2.759500026702881 2.759500026702881,5 0,5 C-2.759500026702881,5 -5,2.759500026702881 -5,0 C-5,-2.759500026702881 -2.759500026702881,-5 0,-5z"></path></g></g><g style="display: block;" transform="matrix(0,-0.9957147240638733,0.9957147240638733,0,432.51629638671875,494.3290100097656)" opacity="1"><g opacity="1" transform="matrix(1,0,0,1,-330,-132)"><path fill="rgb(156,160,156)" fill-opacity="1" d=" M0,-10 C5.519000053405762,-10 10,-5.519000053405762 10,0 C10,5.519000053405762 5.519000053405762,10 0,10 C-5.519000053405762,10 -10,5.519000053405762 -10,0 C-10,-5.519000053405762 -5.519000053405762,-10 0,-10z"></path><path stroke-linecap="butt" stroke-linejoin="miter" fill-opacity="0" stroke-miterlimit="4" stroke="rgb(59,189,64)" stroke-opacity="1" stroke-width="0" d=" M0,-10 C5.519000053405762,-10 10,-5.519000053405762 10,0 C10,5.519000053405762 5.519000053405762,10 0,10 C-5.519000053405762,10 -10,5.519000053405762 -10,0 C-10,-5.519000053405762 -5.519000053405762,-10 0,-10z"></path></g></g><g style="display: block;" transform="matrix(0,-0.9957147240638733,0.9957147240638733,0,385.5247802734375,449.3272399902344)" opacity="1"><g opacity="1" transform="matrix(1,0,0,1,-330,-132)"><path fill="rgb(79,193,83)" fill-opacity="1" d=" M0,-5 C2.759500026702881,-5 5,-2.759500026702881 5,0 C5,2.759500026702881 2.759500026702881,5 0,5 C-2.759500026702881,5 -5,2.759500026702881 -5,0 C-5,-2.759500026702881 -2.759500026702881,-5 0,-5z"></path><path stroke-linecap="butt" stroke-linejoin="miter" fill-opacity="0" stroke-miterlimit="4" stroke="rgb(59,189,64)" stroke-opacity="1" stroke-width="0" d=" M0,-5 C2.759500026702881,-5 5,-2.759500026702881 5,0 C5,2.759500026702881 2.759500026702881,5 0,5 C-2.759500026702881,5 -5,2.759500026702881 -5,0 C-5,-2.759500026702881 -2.759500026702881,-5 0,-5z"></path></g></g><g style="display: block;" transform="matrix(0,-0.9957147240638733,0.9957147240638733,0,389.3175048828125,494.0657043457031)" opacity="1"><g opacity="1" transform="matrix(1,0,0,1,-330,-132)"><path fill="rgb(2,252,10)" fill-opacity="1" d=" M0,-15 C8.278499603271484,-15 15,-8.278499603271484 15,0 C15,8.278499603271484 8.278499603271484,15 0,15 C-8.278499603271484,15 -15,8.278499603271484 -15,0 C-15,-8.278499603271484 -8.278499603271484,-15 0,-15z"></path><path stroke-linecap="butt" stroke-linejoin="miter" fill-opacity="0" stroke-miterlimit="4" stroke="rgb(59,189,64)" stroke-opacity="1" stroke-width="0" d=" M0,-15 C8.278499603271484,-15 15,-8.278499603271484 15,0 C15,8.278499603271484 8.278499603271484,15 0,15 C-8.278499603271484,15 -15,8.278499603271484 -15,0 C-15,-8.278499603271484 -8.278499603271484,-15 0,-15z"></path></g></g><g style="display: block;" transform="matrix(0.7040766477584839,-0.7040766477584839,0.7040766477584839,0.7040766477584839,496.291015625,431.70355224609375)" opacity="1"><g opacity="1" transform="matrix(1,0,0,1,-330,-132)"><path fill="rgb(156,160,156)" fill-opacity="1" d=" M0,-10 C5.519000053405762,-10 10,-5.519000053405762 10,0 C10,5.519000053405762 5.519000053405762,10 0,10 C-5.519000053405762,10 -10,5.519000053405762 -10,0 C-10,-5.519000053405762 -5.519000053405762,-10 0,-10z"></path><path stroke-linecap="butt" stroke-linejoin="miter" fill-opacity="0" stroke-miterlimit="4" stroke="rgb(59,189,64)" stroke-opacity="1" stroke-width="0" d=" M0,-10 C5.519000053405762,-10 10,-5.519000053405762 10,0 C10,5.519000053405762 5.519000053405762,10 0,10 C-5.519000053405762,10 -10,5.519000053405762 -10,0 C-10,-5.519000053405762 -5.519000053405762,-10 0,-10z"></path></g></g><g style="display: block;" transform="matrix(0.7040766477584839,-0.7040766477584839,0.7040766477584839,0.7040766477584839,494.88427734375,366.6543273925781)" opacity="1"><g opacity="1" transform="matrix(1,0,0,1,-330,-132)"><path fill="rgb(79,193,83)" fill-opacity="1" d=" M0,-5 C2.759500026702881,-5 5,-2.759500026702881 5,0 C5,2.759500026702881 2.759500026702881,5 0,5 C-2.759500026702881,5 -5,2.759500026702881 -5,0 C-5,-2.759500026702881 -2.759500026702881,-5 0,-5z"></path><path stroke-linecap="butt" stroke-linejoin="miter" fill-opacity="0" stroke-miterlimit="4" stroke="rgb(59,189,64)" stroke-opacity="1" stroke-width="0" d=" M0,-5 C2.759500026702881,-5 5,-2.759500026702881 5,0 C5,2.759500026702881 2.759500026702881,5 0,5 C-2.759500026702881,5 -5,2.759500026702881 -5,0 C-5,-2.759500026702881 -2.759500026702881,-5 0,-5z"></path></g></g><g style="display: block;" transform="matrix(0.7040766477584839,-0.7040766477584839,0.7040766477584839,0.7040766477584839,465.93109130859375,400.97119140625)" opacity="1"><g opacity="1" transform="matrix(1,0,0,1,-330,-132)"><path fill="rgb(2,252,10)" fill-opacity="1" d=" M0,-15 C8.278499603271484,-15 15,-8.278499603271484 15,0 C15,8.278499603271484 8.278499603271484,15 0,15 C-8.278499603271484,15 -15,8.278499603271484 -15,0 C-15,-8.278499603271484 -8.278499603271484,-15 0,-15z"></path><path stroke-linecap="butt" stroke-linejoin="miter" fill-opacity="0" stroke-miterlimit="4" stroke="rgb(59,189,64)" stroke-opacity="1" stroke-width="0" d=" M0,-15 C8.278499603271484,-15 15,-8.278499603271484 15,0 C15,8.278499603271484 8.278499603271484,15 0,15 C-8.278499603271484,15 -15,8.278499603271484 -15,0 C-15,-8.278499603271484 -8.278499603271484,-15 0,-15z"></path></g></g><g style="display: block;" transform="matrix(-0.7627617120742798,0.6400330662727356,-0.6400330662727356,-0.7627617120742798,574.103515625,651.6936645507812)" opacity="1"><g opacity="1" transform="matrix(1,0,0,1,-330,-132)"><path fill="rgb(156,160,156)" fill-opacity="1" d=" M0,-10 C5.519000053405762,-10 10,-5.519000053405762 10,0 C10,5.519000053405762 5.519000053405762,10 0,10 C-5.519000053405762,10 -10,5.519000053405762 -10,0 C-10,-5.519000053405762 -5.519000053405762,-10 0,-10z"></path><path stroke-linecap="butt" stroke-linejoin="miter" fill-opacity="0" stroke-miterlimit="4" stroke="rgb(59,189,64)" stroke-opacity="1" stroke-width="0" d=" M0,-10 C5.519000053405762,-10 10,-5.519000053405762 10,0 C10,5.519000053405762 5.519000053405762,10 0,10 C-5.519000053405762,10 -10,5.519000053405762 -10,0 C-10,-5.519000053405762 -5.519000053405762,-10 0,-10z"></path></g></g><g style="display: block;" transform="matrix(-0.7627617120742798,0.6400330662727356,-0.6400330662727356,-0.7627617120742798,569.835693359375,716.6182861328125)" opacity="1"><g opacity="1" transform="matrix(1,0,0,1,-330,-132)"><path fill="rgb(79,193,83)" fill-opacity="1" d=" M0,-5 C2.759500026702881,-5 5,-2.759500026702881 5,0 C5,2.759500026702881 2.759500026702881,5 0,5 C-2.759500026702881,5 -5,2.759500026702881 -5,0 C-5,-2.759500026702881 -2.759500026702881,-5 0,-5z"></path><path stroke-linecap="butt" stroke-linejoin="miter" fill-opacity="0" stroke-miterlimit="4" stroke="rgb(59,189,64)" stroke-opacity="1" stroke-width="0" d=" M0,-5 C2.759500026702881,-5 5,-2.759500026702881 5,0 C5,2.759500026702881 2.759500026702881,5 0,5 C-2.759500026702881,5 -5,2.759500026702881 -5,0 C-5,-2.759500026702881 -2.759500026702881,-5 0,-5z"></path></g></g><g style="display: block;" transform="matrix(-0.7627617120742798,0.6400330662727356,-0.6400330662727356,-0.7627617120742798,601.6699829101562,684.9552001953125)" opacity="1"><g opacity="1" transform="matrix(1,0,0,1,-330,-132)"><path fill="rgb(2,252,10)" fill-opacity="1" d=" M0,-15 C8.278499603271484,-15 15,-8.278499603271484 15,0 C15,8.278499603271484 8.278499603271484,15 0,15 C-8.278499603271484,15 -15,8.278499603271484 -15,0 C-15,-8.278499603271484 -8.278499603271484,-15 0,-15z"></path><path stroke-linecap="butt" stroke-linejoin="miter" fill-opacity="0" stroke-miterlimit="4" stroke="rgb(59,189,64)" stroke-opacity="1" stroke-width="0" d=" M0,-15 C8.278499603271484,-15 15,-8.278499603271484 15,0 C15,8.278499603271484 8.278499603271484,15 0,15 C-8.278499603271484,15 -15,8.278499603271484 -15,0 C-15,-8.278499603271484 -8.278499603271484,-15 0,-15z"></path></g></g><g style="display: block;" transform="matrix(0.7282196283340454,0.6790758371353149,-0.6790758371353149,0.7282196283340454,646.7053833007812,492.53857421875)" opacity="1"><g opacity="1" transform="matrix(1,0,0,1,-330,-132)"><path fill="rgb(156,160,156)" fill-opacity="1" d=" M0,-10 C5.519000053405762,-10 10,-5.519000053405762 10,0 C10,5.519000053405762 5.519000053405762,10 0,10 C-5.519000053405762,10 -10,5.519000053405762 -10,0 C-10,-5.519000053405762 -5.519000053405762,-10 0,-10z"></path><path stroke-linecap="butt" stroke-linejoin="miter" fill-opacity="0" stroke-miterlimit="4" stroke="rgb(59,189,64)" stroke-opacity="1" stroke-width="0" d=" M0,-10 C5.519000053405762,-10 10,-5.519000053405762 10,0 C10,5.519000053405762 5.519000053405762,10 0,10 C-5.519000053405762,10 -10,5.519000053405762 -10,0 C-10,-5.519000053405762 -5.519000053405762,-10 0,-10z"></path></g></g><g style="display: block;" transform="matrix(0.7282196283340454,0.6790758371353149,-0.6790758371353149,0.7282196283340454,711.6658935546875,488.86199951171875)" opacity="1"><g opacity="1" transform="matrix(1,0,0,1,-330,-132)"><path fill="rgb(79,193,83)" fill-opacity="1" d=" M0,-5 C2.759500026702881,-5 5,-2.759500026702881 5,0 C5,2.759500026702881 2.759500026702881,5 0,5 C-2.759500026702881,5 -5,2.759500026702881 -5,0 C-5,-2.759500026702881 -2.759500026702881,-5 0,-5z"></path><path stroke-linecap="butt" stroke-linejoin="miter" fill-opacity="0" stroke-miterlimit="4" stroke="rgb(59,189,64)" stroke-opacity="1" stroke-width="0" d=" M0,-5 C2.759500026702881,-5 5,-2.759500026702881 5,0 C5,2.759500026702881 2.759500026702881,5 0,5 C-2.759500026702881,5 -5,2.759500026702881 -5,0 C-5,-2.759500026702881 -2.759500026702881,-5 0,-5z"></path></g></g><g style="display: block;" transform="matrix(0.7282196283340454,0.6790758371353149,-0.6790758371353149,0.7282196283340454,676.359130859375,461.12457275390625)" opacity="1"><g opacity="1" transform="matrix(1,0,0,1,-330,-132)"><path fill="rgb(2,252,10)" fill-opacity="1" d=" M0,-15 C8.278499603271484,-15 15,-8.278499603271484 15,0 C15,8.278499603271484 8.278499603271484,15 0,15 C-8.278499603271484,15 -15,8.278499603271484 -15,0 C-15,-8.278499603271484 -8.278499603271484,-15 0,-15z"></path><path stroke-linecap="butt" stroke-linejoin="miter" fill-opacity="0" stroke-miterlimit="4" stroke="rgb(59,189,64)" stroke-opacity="1" stroke-width="0" d=" M0,-15 C8.278499603271484,-15 15,-8.278499603271484 15,0 C15,8.278499603271484 8.278499603271484,15 0,15 C-8.278499603271484,15 -15,8.278499603271484 -15,0 C-15,-8.278499603271484 -8.278499603271484,-15 0,-15z"></path></g></g><g style="display: block;" transform="matrix(-0.666263222694397,-0.739960253238678,0.739960253238678,-0.666263222694397,429.5640869140625,577.9808349609375)" opacity="1"><g opacity="1" transform="matrix(1,0,0,1,-330,-132)"><path fill="rgb(156,160,156)" fill-opacity="1" d=" M0,-10 C5.519000053405762,-10 10,-5.519000053405762 10,0 C10,5.519000053405762 5.519000053405762,10 0,10 C-5.519000053405762,10 -10,5.519000053405762 -10,0 C-10,-5.519000053405762 -5.519000053405762,-10 0,-10z"></path><path stroke-linecap="butt" stroke-linejoin="miter" fill-opacity="0" stroke-miterlimit="4" stroke="rgb(59,189,64)" stroke-opacity="1" stroke-width="0" d=" M0,-10 C5.519000053405762,-10 10,-5.519000053405762 10,0 C10,5.519000053405762 5.519000053405762,10 0,10 C-5.519000053405762,10 -10,5.519000053405762 -10,0 C-10,-5.519000053405762 -5.519000053405762,-10 0,-10z"></path></g></g><g style="display: block;" transform="matrix(-0.666263222694397,-0.739960253238678,0.739960253238678,-0.666263222694397,364.53021240234375,575.9818725585938)" opacity="1"><g opacity="1" transform="matrix(1,0,0,1,-330,-132)"><path fill="rgb(79,193,83)" fill-opacity="1" d=" M0,-5 C2.759500026702881,-5 5,-2.759500026702881 5,0 C5,2.759500026702881 2.759500026702881,5 0,5 C-2.759500026702881,5 -5,2.759500026702881 -5,0 C-5,-2.759500026702881 -2.759500026702881,-5 0,-5z"></path><path stroke-linecap="butt" stroke-linejoin="miter" fill-opacity="0" stroke-miterlimit="4" stroke="rgb(59,189,64)" stroke-opacity="1" stroke-width="0" d=" M0,-5 C2.759500026702881,-5 5,-2.759500026702881 5,0 C5,2.759500026702881 2.759500026702881,5 0,5 C-2.759500026702881,5 -5,2.759500026702881 -5,0 C-5,-2.759500026702881 -2.759500026702881,-5 0,-5z"></path></g></g><g style="display: block;" transform="matrix(-0.666263222694397,-0.739960253238678,0.739960253238678,-0.666263222694397,397.28521728515625,606.6909790039062)" opacity="1"><g opacity="1" transform="matrix(1,0,0,1,-330,-132)"><path fill="rgb(2,252,10)" fill-opacity="1" d=" M0,-15 C8.278499603271484,-15 15,-8.278499603271484 15,0 C15,8.278499603271484 8.278499603271484,15 0,15 C-8.278499603271484,15 -15,8.278499603271484 -15,0 C-15,-8.278499603271484 -8.278499603271484,-15 0,-15z"></path><path stroke-linecap="butt" stroke-linejoin="miter" fill-opacity="0" stroke-miterlimit="4" stroke="rgb(59,189,64)" stroke-opacity="1" stroke-width="0" d=" M0,-15 C8.278499603271484,-15 15,-8.278499603271484 15,0 C15,8.278499603271484 8.278499603271484,15 0,15 C-8.278499603271484,15 -15,8.278499603271484 -15,0 C-15,-8.278499603271484 -8.278499603271484,-15 0,-15z"></path></g></g><g style="display: block;" transform="matrix(-0.9957147240638733,0,0,-0.9957147240638733,494.2409362792969,691.3924560546875)" opacity="1"><g opacity="1" transform="matrix(1,0,0,1,-330,-132)"><path fill="rgb(2,252,10)" fill-opacity="1" d=" M0,-15 C8.278499603271484,-15 15,-8.278499603271484 15,0 C15,8.278499603271484 8.278499603271484,15 0,15 C-8.278499603271484,15 -15,8.278499603271484 -15,0 C-15,-8.278499603271484 -8.278499603271484,-15 0,-15z"></path><path stroke-linecap="butt" stroke-linejoin="miter" fill-opacity="0" stroke-miterlimit="4" stroke="rgb(59,189,64)" stroke-opacity="1" stroke-width="0" d=" M0,-15 C8.278499603271484,-15 15,-8.278499603271484 15,0 C15,8.278499603271484 8.278499603271484,15 0,15 C-8.278499603271484,15 -15,8.278499603271484 -15,0 C-15,-8.278499603271484 -8.278499603271484,-15 0,-15z"></path></g></g><g style="display: block;" transform="matrix(0,0.9957147240638733,-0.9957147240638733,0,691.0390014648438,585.934326171875)" opacity="1"><g opacity="1" transform="matrix(1,0,0,1,-330,-132)"><path fill="rgb(2,252,10)" fill-opacity="1" d=" M0,-15 C8.278499603271484,-15 15,-8.278499603271484 15,0 C15,8.278499603271484 8.278499603271484,15 0,15 C-8.278499603271484,15 -15,8.278499603271484 -15,0 C-15,-8.278499603271484 -8.278499603271484,-15 0,-15z"></path><path stroke-linecap="butt" stroke-linejoin="miter" fill-opacity="0" stroke-miterlimit="4" stroke="rgb(59,189,64)" stroke-opacity="1" stroke-width="0" d=" M0,-15 C8.278499603271484,-15 15,-8.278499603271484 15,0 C15,8.278499603271484 8.278499603271484,15 0,15 C-8.278499603271484,15 -15,8.278499603271484 -15,0 C-15,-8.278499603271484 -8.278499603271484,-15 0,-15z"></path></g></g></g><g transform="matrix(1,0,0,1,447,483)" opacity="1" style="display: none;"><g opacity="1" transform="matrix(1,0,0,1,93,57)"><path stroke-linecap="round" stroke-linejoin="miter" fill-opacity="0" stroke-miterlimit="4" stroke="rgb(59,189,64)" stroke-opacity="1" stroke-width="12" d="M0 0"></path></g></g><g style="display: block;" transform="matrix(0.9772357940673828,0,0,0.9772357940673828,540,539.9996948242188)" opacity="1"><g opacity="1" transform="matrix(1,0,0,1,0,0)"><path fill="rgb(59,189,64)" fill-opacity="1" d=" M0,180.47500610351562 C-42.111000061035156,169.94700622558594 -76.7020034790039,145.50799560546875 -103.77300262451172,107.15699768066406 C-130.843994140625,68.80599975585938 -144.3800048828125,26.770000457763672 -144.3800048828125,-18.950000762939453 C-144.3800048828125,-18.950000762939453 -144.3800048828125,-126.33300018310547 -144.3800048828125,-126.33300018310547 C-144.3800048828125,-126.33300018310547 0,-180.47500610351562 0,-180.47500610351562 C0,-180.47500610351562 144.3800048828125,-126.33300018310547 144.3800048828125,-126.33300018310547 C144.3800048828125,-126.33300018310547 144.3800048828125,-18.950000762939453 144.3800048828125,-18.950000762939453 C144.3800048828125,26.770000457763672 130.843994140625,68.80599975585938 103.77300262451172,107.15699768066406 C76.7020034790039,145.50799560546875 42.111000061035156,169.94700622558594 0,180.47500610351562z"></path></g></g><g style="display: block;" transform="matrix(1.2000000476837158,0,0,1.2000000476837158,525.5999755859375,549.5999755859375)" opacity="1"><g opacity="1" transform="matrix(1,0,0,1,12,-8)"><path stroke-linecap="butt" stroke-linejoin="miter" fill-opacity="0" stroke-miterlimit="4" stroke="rgb(59,189,64)" stroke-opacity="1" stroke-width="0" d=" M0,-212 C117.00279998779297,-212 212,-117.00279998779297 212,0 C212,117.00279998779297 117.00279998779297,212 0,212 C-117.00279998779297,212 -212,117.00279998779297 -212,0 C-212,-117.00279998779297 -117.00279998779297,-212 0,-212z"></path></g></g><g transform="matrix(0.7071059942245483,-0.7071059942245483,0.7071059942245483,0.7071059942245483,528.1612548828125,496.95452880859375)" opacity="1" style="display: block;"><g opacity="1" transform="matrix(1.100000023841858,0,0,1.100000023841858,0,-2.308000087738037)"><path stroke-linecap="round" stroke-linejoin="round" fill-opacity="0" stroke="rgb(255,255,255)" stroke-opacity="1" stroke-width="22" d=" M-50,-2.4549999237060547 C-50,-2.4549999237060547 -50,43 -50,43 C-50,43 49,43 49,43"></path></g></g></g></svg>